%TF.GenerationSoftware,KiCad,Pcbnew,7.0.6*%
%TF.CreationDate,2024-06-29T14:20:43+02:00*%
%TF.ProjectId,plinkyblack_hwmidi_jacks,706c696e-6b79-4626-9c61-636b5f68776d,rev?*%
%TF.SameCoordinates,Original*%
%TF.FileFunction,Soldermask,Bot*%
%TF.FilePolarity,Negative*%
%FSLAX46Y46*%
G04 Gerber Fmt 4.6, Leading zero omitted, Abs format (unit mm)*
G04 Created by KiCad (PCBNEW 7.0.6) date 2024-06-29 14:20:43*
%MOMM*%
%LPD*%
G01*
G04 APERTURE LIST*
G04 Aperture macros list*
%AMRoundRect*
0 Rectangle with rounded corners*
0 $1 Rounding radius*
0 $2 $3 $4 $5 $6 $7 $8 $9 X,Y pos of 4 corners*
0 Add a 4 corners polygon primitive as box body*
4,1,4,$2,$3,$4,$5,$6,$7,$8,$9,$2,$3,0*
0 Add four circle primitives for the rounded corners*
1,1,$1+$1,$2,$3*
1,1,$1+$1,$4,$5*
1,1,$1+$1,$6,$7*
1,1,$1+$1,$8,$9*
0 Add four rect primitives between the rounded corners*
20,1,$1+$1,$2,$3,$4,$5,0*
20,1,$1+$1,$4,$5,$6,$7,0*
20,1,$1+$1,$6,$7,$8,$9,0*
20,1,$1+$1,$8,$9,$2,$3,0*%
G04 Aperture macros list end*
%ADD10RoundRect,0.051000X0.915000X-0.965000X0.915000X0.965000X-0.915000X0.965000X-0.915000X-0.965000X0*%
%ADD11C,2.232000*%
%ADD12RoundRect,0.051000X-0.915000X0.965000X-0.915000X-0.965000X0.915000X-0.965000X0.915000X0.965000X0*%
%ADD13RoundRect,0.301000X-0.600000X0.600000X-0.600000X-0.600000X0.600000X-0.600000X0.600000X0.600000X0*%
%ADD14C,1.802000*%
%ADD15RoundRect,0.051000X0.850000X-0.850000X0.850000X0.850000X-0.850000X0.850000X-0.850000X-0.850000X0*%
%ADD16O,1.802000X1.802000*%
%ADD17O,3.342000X2.822000*%
%ADD18O,3.342001X2.134000*%
%ADD19RoundRect,0.051000X-0.900000X0.900000X-0.900000X-0.900000X0.900000X-0.900000X0.900000X0.900000X0*%
%ADD20C,1.902000*%
%ADD21RoundRect,0.301000X0.600000X0.600000X-0.600000X0.600000X-0.600000X-0.600000X0.600000X-0.600000X0*%
%ADD22C,1.880000*%
%ADD23RoundRect,0.051000X0.900000X-0.900000X0.900000X0.900000X-0.900000X0.900000X-0.900000X-0.900000X0*%
%ADD24C,3.302000*%
%ADD25RoundRect,0.051000X-0.825000X0.825000X-0.825000X-0.825000X0.825000X-0.825000X0.825000X0.825000X0*%
%ADD26C,1.752000*%
%ADD27O,6.102000X3.102000*%
%ADD28C,1.302000*%
%ADD29C,0.702000*%
%ADD30O,1.104000X2.204000*%
%ADD31O,1.104000X1.904000*%
%ADD32RoundRect,0.051000X0.750000X-0.500000X0.750000X0.500000X-0.750000X0.500000X-0.750000X-0.500000X0*%
%ADD33C,1.102000*%
G04 APERTURE END LIST*
D10*
%TO.C,J4*%
X27940000Y-115570000D03*
D11*
X16540000Y-115570000D03*
X24840000Y-115570000D03*
%TD*%
D12*
%TO.C,J6*%
X124460000Y-46990000D03*
D11*
X135860000Y-46990000D03*
X127560000Y-46990000D03*
%TD*%
D12*
%TO.C,J7*%
X124460000Y-58420000D03*
D11*
X135860000Y-58420000D03*
X127560000Y-58420000D03*
%TD*%
D10*
%TO.C,J8*%
X27940000Y-81280000D03*
D11*
X16540000Y-81280000D03*
X24840000Y-81280000D03*
%TD*%
D10*
%TO.C,J9*%
X27940000Y-92710000D03*
D11*
X16540000Y-92710000D03*
X24840000Y-92710000D03*
%TD*%
D12*
%TO.C,J15*%
X124460000Y-104140000D03*
D11*
X135860000Y-104140000D03*
X127560000Y-104140000D03*
%TD*%
D12*
%TO.C,J17*%
X124460000Y-92710000D03*
D11*
X135860000Y-92710000D03*
X127560000Y-92710000D03*
%TD*%
D13*
%TO.C,JP1*%
X109918500Y-113792000D03*
D14*
X109918500Y-116332000D03*
X107378500Y-113792000D03*
X107378500Y-116332000D03*
X104838500Y-113792000D03*
X104838500Y-116332000D03*
X102298500Y-113792000D03*
X102298500Y-116332000D03*
X99758500Y-113792000D03*
X99758500Y-116332000D03*
X97218500Y-113792000D03*
X97218500Y-116332000D03*
X94678500Y-113792000D03*
X94678500Y-116332000D03*
X92138500Y-113792000D03*
X92138500Y-116332000D03*
%TD*%
D15*
%TO.C,J12*%
X118110000Y-29210000D03*
D16*
X118110000Y-31750000D03*
X120650000Y-29210000D03*
X120650000Y-31750000D03*
X123190000Y-29210000D03*
X123190000Y-31750000D03*
X125730000Y-29210000D03*
X125730000Y-31750000D03*
X128270000Y-29210000D03*
X128270000Y-31750000D03*
X130810000Y-29210000D03*
X130810000Y-31750000D03*
X133350000Y-29210000D03*
X133350000Y-31750000D03*
X135890000Y-29210000D03*
X135890000Y-31750000D03*
%TD*%
D10*
%TO.C,J3*%
X27940000Y-104140000D03*
D11*
X16540000Y-104140000D03*
X24840000Y-104140000D03*
%TD*%
D12*
%TO.C,J14*%
X124460000Y-127000000D03*
D11*
X135860000Y-127000000D03*
X127560000Y-127000000D03*
%TD*%
D17*
%TO.C,RV1*%
X41014000Y-36209000D03*
D18*
X41014000Y-26609000D03*
D19*
X48514000Y-33909000D03*
D20*
X48514000Y-31409000D03*
X48514000Y-28909000D03*
%TD*%
D10*
%TO.C,J10*%
X27940000Y-127000000D03*
D11*
X16540000Y-127000000D03*
X24840000Y-127000000D03*
%TD*%
D10*
%TO.C,J11*%
X27940000Y-46990000D03*
D11*
X16540000Y-46990000D03*
X24840000Y-46990000D03*
%TD*%
D12*
%TO.C,J22*%
X124460000Y-69850000D03*
D11*
X135860000Y-69850000D03*
X127560000Y-69850000D03*
%TD*%
D12*
%TO.C,J23*%
X124460000Y-81280000D03*
D11*
X135860000Y-81280000D03*
X127560000Y-81280000D03*
%TD*%
D12*
%TO.C,J16*%
X124460000Y-115570000D03*
D11*
X135860000Y-115570000D03*
X127560000Y-115570000D03*
%TD*%
D15*
%TO.C,J13*%
X16510000Y-29210000D03*
D16*
X16510000Y-31750000D03*
X19050000Y-29210000D03*
X19050000Y-31750000D03*
X21590000Y-29210000D03*
X21590000Y-31750000D03*
X24130000Y-29210000D03*
X24130000Y-31750000D03*
X26670000Y-29210000D03*
X26670000Y-31750000D03*
X29210000Y-29210000D03*
X29210000Y-31750000D03*
X31750000Y-29210000D03*
X31750000Y-31750000D03*
X34290000Y-29210000D03*
X34290000Y-31750000D03*
%TD*%
D21*
%TO.C,J25*%
X62738000Y-88265000D03*
D14*
X60198000Y-88265000D03*
X62738000Y-85725000D03*
X60198000Y-85725000D03*
X62738000Y-83185000D03*
X60198000Y-83185000D03*
X62738000Y-80645000D03*
X60198000Y-80645000D03*
X62738000Y-78105000D03*
X60198000Y-78105000D03*
X62738000Y-75565000D03*
X60198000Y-75565000D03*
X62738000Y-73025000D03*
X60198000Y-73025000D03*
X62738000Y-70485000D03*
X60198000Y-70485000D03*
%TD*%
D22*
%TO.C,J20*%
X65524000Y-27686000D03*
X65524000Y-30226000D03*
X65524000Y-32766000D03*
X65524000Y-35306000D03*
%TD*%
D17*
%TO.C,RV2*%
X58427000Y-26656000D03*
D18*
X58427000Y-36256000D03*
D23*
X50927000Y-28956000D03*
D20*
X50927000Y-31456000D03*
X50927000Y-33956000D03*
%TD*%
D10*
%TO.C,J2*%
X27940000Y-58420000D03*
D11*
X16540000Y-58420000D03*
X24840000Y-58420000D03*
%TD*%
D10*
%TO.C,J1*%
X27940000Y-69850000D03*
D11*
X16540000Y-69850000D03*
X24840000Y-69850000D03*
%TD*%
D24*
%TO.C,H1*%
X119380000Y-130683000D03*
%TD*%
%TO.C,H2*%
X109220000Y-30480000D03*
%TD*%
%TO.C,H4*%
X43180000Y-30480000D03*
%TD*%
D25*
%TO.C,MT1*%
X115712000Y-29250000D03*
D26*
X115712000Y-34250000D03*
X101212000Y-29250000D03*
X101212000Y-34250000D03*
X101212000Y-31750000D03*
D27*
X108712000Y-26050000D03*
X108712000Y-37450000D03*
%TD*%
D28*
%TO.C,J32*%
X79897715Y-129803484D03*
X79897715Y-123803484D03*
%TD*%
%TO.C,J28*%
X58246046Y-129811092D03*
X58246046Y-123811092D03*
%TD*%
%TO.C,J30*%
X35117206Y-129810030D03*
X35117206Y-123810030D03*
%TD*%
D29*
%TO.C,U19*%
X86435928Y-31172273D03*
X80655928Y-31172273D03*
D30*
X87870928Y-31662273D03*
X79220928Y-31662273D03*
D31*
X87870928Y-27492273D03*
X79220928Y-27492273D03*
%TD*%
D28*
%TO.C,J31*%
X72712306Y-29698056D03*
X72712306Y-35698056D03*
%TD*%
%TO.C,J33*%
X94339677Y-29716578D03*
X94339677Y-35716578D03*
%TD*%
%TO.C,J29*%
X46626898Y-129810030D03*
X46626898Y-123810030D03*
%TD*%
D29*
%TO.C,U20*%
X66181311Y-128324022D03*
X71961311Y-128324022D03*
D30*
X64746311Y-127834022D03*
X73396311Y-127834022D03*
D31*
X64746311Y-132004022D03*
X73396311Y-132004022D03*
%TD*%
D32*
%TO.C,JP2*%
X81280000Y-64912000D03*
X81280000Y-63612000D03*
%TD*%
D33*
%TO.C,TPDEBUG1*%
X61468000Y-54991000D03*
%TD*%
%TO.C,T_JTCK1*%
X61468000Y-62611000D03*
%TD*%
%TO.C,T_JTMS1*%
X61468000Y-60071000D03*
%TD*%
%TO.C,T_NRST1*%
X61468000Y-57531000D03*
%TD*%
%TO.C,T_VBUS1*%
X78732890Y-109247267D03*
%TD*%
%TO.C,T_AUDIOR1*%
X88980000Y-34972000D03*
%TD*%
%TO.C,T_AUDIOL1*%
X98980000Y-34972000D03*
%TD*%
M02*
