%TF.GenerationSoftware,KiCad,Pcbnew,7.0.6*%
%TF.CreationDate,2024-06-29T14:20:43+02:00*%
%TF.ProjectId,plinkyblack_hwmidi_jacks,706c696e-6b79-4626-9c61-636b5f68776d,rev?*%
%TF.SameCoordinates,Original*%
%TF.FileFunction,Other,Comment*%
%FSLAX46Y46*%
G04 Gerber Fmt 4.6, Leading zero omitted, Abs format (unit mm)*
G04 Created by KiCad (PCBNEW 7.0.6) date 2024-06-29 14:20:43*
%MOMM*%
%LPD*%
G01*
G04 APERTURE LIST*
%ADD10C,0.051000*%
%ADD11C,0.150000*%
G04 APERTURE END LIST*
D10*
X21642395Y-116808095D02*
X21242395Y-116808095D01*
X21642395Y-116579524D02*
X21413824Y-116750953D01*
X21242395Y-116579524D02*
X21470967Y-116808095D01*
X21432871Y-116408095D02*
X21432871Y-116274762D01*
X21642395Y-116217619D02*
X21642395Y-116408095D01*
X21642395Y-116408095D02*
X21242395Y-116408095D01*
X21242395Y-116408095D02*
X21242395Y-116217619D01*
X21432871Y-116046190D02*
X21432871Y-115912857D01*
X21642395Y-115855714D02*
X21642395Y-116046190D01*
X21642395Y-116046190D02*
X21242395Y-116046190D01*
X21242395Y-116046190D02*
X21242395Y-115855714D01*
X21642395Y-115684285D02*
X21242395Y-115684285D01*
X21242395Y-115684285D02*
X21242395Y-115531904D01*
X21242395Y-115531904D02*
X21261443Y-115493809D01*
X21261443Y-115493809D02*
X21280490Y-115474762D01*
X21280490Y-115474762D02*
X21318586Y-115455714D01*
X21318586Y-115455714D02*
X21375728Y-115455714D01*
X21375728Y-115455714D02*
X21413824Y-115474762D01*
X21413824Y-115474762D02*
X21432871Y-115493809D01*
X21432871Y-115493809D02*
X21451919Y-115531904D01*
X21451919Y-115531904D02*
X21451919Y-115684285D01*
X21242395Y-115208095D02*
X21242395Y-115131904D01*
X21242395Y-115131904D02*
X21261443Y-115093809D01*
X21261443Y-115093809D02*
X21299538Y-115055714D01*
X21299538Y-115055714D02*
X21375728Y-115036666D01*
X21375728Y-115036666D02*
X21509062Y-115036666D01*
X21509062Y-115036666D02*
X21585252Y-115055714D01*
X21585252Y-115055714D02*
X21623348Y-115093809D01*
X21623348Y-115093809D02*
X21642395Y-115131904D01*
X21642395Y-115131904D02*
X21642395Y-115208095D01*
X21642395Y-115208095D02*
X21623348Y-115246190D01*
X21623348Y-115246190D02*
X21585252Y-115284285D01*
X21585252Y-115284285D02*
X21509062Y-115303333D01*
X21509062Y-115303333D02*
X21375728Y-115303333D01*
X21375728Y-115303333D02*
X21299538Y-115284285D01*
X21299538Y-115284285D02*
X21261443Y-115246190D01*
X21261443Y-115246190D02*
X21242395Y-115208095D01*
X21242395Y-114865237D02*
X21566205Y-114865237D01*
X21566205Y-114865237D02*
X21604300Y-114846190D01*
X21604300Y-114846190D02*
X21623348Y-114827142D01*
X21623348Y-114827142D02*
X21642395Y-114789047D01*
X21642395Y-114789047D02*
X21642395Y-114712856D01*
X21642395Y-114712856D02*
X21623348Y-114674761D01*
X21623348Y-114674761D02*
X21604300Y-114655714D01*
X21604300Y-114655714D02*
X21566205Y-114636666D01*
X21566205Y-114636666D02*
X21242395Y-114636666D01*
X21242395Y-114503332D02*
X21242395Y-114274761D01*
X21642395Y-114389047D02*
X21242395Y-114389047D01*
X131122395Y-48228095D02*
X130722395Y-48228095D01*
X131122395Y-47999524D02*
X130893824Y-48170953D01*
X130722395Y-47999524D02*
X130950967Y-48228095D01*
X130912871Y-47828095D02*
X130912871Y-47694762D01*
X131122395Y-47637619D02*
X131122395Y-47828095D01*
X131122395Y-47828095D02*
X130722395Y-47828095D01*
X130722395Y-47828095D02*
X130722395Y-47637619D01*
X130912871Y-47466190D02*
X130912871Y-47332857D01*
X131122395Y-47275714D02*
X131122395Y-47466190D01*
X131122395Y-47466190D02*
X130722395Y-47466190D01*
X130722395Y-47466190D02*
X130722395Y-47275714D01*
X131122395Y-47104285D02*
X130722395Y-47104285D01*
X130722395Y-47104285D02*
X130722395Y-46951904D01*
X130722395Y-46951904D02*
X130741443Y-46913809D01*
X130741443Y-46913809D02*
X130760490Y-46894762D01*
X130760490Y-46894762D02*
X130798586Y-46875714D01*
X130798586Y-46875714D02*
X130855728Y-46875714D01*
X130855728Y-46875714D02*
X130893824Y-46894762D01*
X130893824Y-46894762D02*
X130912871Y-46913809D01*
X130912871Y-46913809D02*
X130931919Y-46951904D01*
X130931919Y-46951904D02*
X130931919Y-47104285D01*
X130722395Y-46628095D02*
X130722395Y-46551904D01*
X130722395Y-46551904D02*
X130741443Y-46513809D01*
X130741443Y-46513809D02*
X130779538Y-46475714D01*
X130779538Y-46475714D02*
X130855728Y-46456666D01*
X130855728Y-46456666D02*
X130989062Y-46456666D01*
X130989062Y-46456666D02*
X131065252Y-46475714D01*
X131065252Y-46475714D02*
X131103348Y-46513809D01*
X131103348Y-46513809D02*
X131122395Y-46551904D01*
X131122395Y-46551904D02*
X131122395Y-46628095D01*
X131122395Y-46628095D02*
X131103348Y-46666190D01*
X131103348Y-46666190D02*
X131065252Y-46704285D01*
X131065252Y-46704285D02*
X130989062Y-46723333D01*
X130989062Y-46723333D02*
X130855728Y-46723333D01*
X130855728Y-46723333D02*
X130779538Y-46704285D01*
X130779538Y-46704285D02*
X130741443Y-46666190D01*
X130741443Y-46666190D02*
X130722395Y-46628095D01*
X130722395Y-46285237D02*
X131046205Y-46285237D01*
X131046205Y-46285237D02*
X131084300Y-46266190D01*
X131084300Y-46266190D02*
X131103348Y-46247142D01*
X131103348Y-46247142D02*
X131122395Y-46209047D01*
X131122395Y-46209047D02*
X131122395Y-46132856D01*
X131122395Y-46132856D02*
X131103348Y-46094761D01*
X131103348Y-46094761D02*
X131084300Y-46075714D01*
X131084300Y-46075714D02*
X131046205Y-46056666D01*
X131046205Y-46056666D02*
X130722395Y-46056666D01*
X130722395Y-45923332D02*
X130722395Y-45694761D01*
X131122395Y-45809047D02*
X130722395Y-45809047D01*
X131122395Y-59658095D02*
X130722395Y-59658095D01*
X131122395Y-59429524D02*
X130893824Y-59600953D01*
X130722395Y-59429524D02*
X130950967Y-59658095D01*
X130912871Y-59258095D02*
X130912871Y-59124762D01*
X131122395Y-59067619D02*
X131122395Y-59258095D01*
X131122395Y-59258095D02*
X130722395Y-59258095D01*
X130722395Y-59258095D02*
X130722395Y-59067619D01*
X130912871Y-58896190D02*
X130912871Y-58762857D01*
X131122395Y-58705714D02*
X131122395Y-58896190D01*
X131122395Y-58896190D02*
X130722395Y-58896190D01*
X130722395Y-58896190D02*
X130722395Y-58705714D01*
X131122395Y-58534285D02*
X130722395Y-58534285D01*
X130722395Y-58534285D02*
X130722395Y-58381904D01*
X130722395Y-58381904D02*
X130741443Y-58343809D01*
X130741443Y-58343809D02*
X130760490Y-58324762D01*
X130760490Y-58324762D02*
X130798586Y-58305714D01*
X130798586Y-58305714D02*
X130855728Y-58305714D01*
X130855728Y-58305714D02*
X130893824Y-58324762D01*
X130893824Y-58324762D02*
X130912871Y-58343809D01*
X130912871Y-58343809D02*
X130931919Y-58381904D01*
X130931919Y-58381904D02*
X130931919Y-58534285D01*
X130722395Y-58058095D02*
X130722395Y-57981904D01*
X130722395Y-57981904D02*
X130741443Y-57943809D01*
X130741443Y-57943809D02*
X130779538Y-57905714D01*
X130779538Y-57905714D02*
X130855728Y-57886666D01*
X130855728Y-57886666D02*
X130989062Y-57886666D01*
X130989062Y-57886666D02*
X131065252Y-57905714D01*
X131065252Y-57905714D02*
X131103348Y-57943809D01*
X131103348Y-57943809D02*
X131122395Y-57981904D01*
X131122395Y-57981904D02*
X131122395Y-58058095D01*
X131122395Y-58058095D02*
X131103348Y-58096190D01*
X131103348Y-58096190D02*
X131065252Y-58134285D01*
X131065252Y-58134285D02*
X130989062Y-58153333D01*
X130989062Y-58153333D02*
X130855728Y-58153333D01*
X130855728Y-58153333D02*
X130779538Y-58134285D01*
X130779538Y-58134285D02*
X130741443Y-58096190D01*
X130741443Y-58096190D02*
X130722395Y-58058095D01*
X130722395Y-57715237D02*
X131046205Y-57715237D01*
X131046205Y-57715237D02*
X131084300Y-57696190D01*
X131084300Y-57696190D02*
X131103348Y-57677142D01*
X131103348Y-57677142D02*
X131122395Y-57639047D01*
X131122395Y-57639047D02*
X131122395Y-57562856D01*
X131122395Y-57562856D02*
X131103348Y-57524761D01*
X131103348Y-57524761D02*
X131084300Y-57505714D01*
X131084300Y-57505714D02*
X131046205Y-57486666D01*
X131046205Y-57486666D02*
X130722395Y-57486666D01*
X130722395Y-57353332D02*
X130722395Y-57124761D01*
X131122395Y-57239047D02*
X130722395Y-57239047D01*
X21642395Y-82518095D02*
X21242395Y-82518095D01*
X21642395Y-82289524D02*
X21413824Y-82460953D01*
X21242395Y-82289524D02*
X21470967Y-82518095D01*
X21432871Y-82118095D02*
X21432871Y-81984762D01*
X21642395Y-81927619D02*
X21642395Y-82118095D01*
X21642395Y-82118095D02*
X21242395Y-82118095D01*
X21242395Y-82118095D02*
X21242395Y-81927619D01*
X21432871Y-81756190D02*
X21432871Y-81622857D01*
X21642395Y-81565714D02*
X21642395Y-81756190D01*
X21642395Y-81756190D02*
X21242395Y-81756190D01*
X21242395Y-81756190D02*
X21242395Y-81565714D01*
X21642395Y-81394285D02*
X21242395Y-81394285D01*
X21242395Y-81394285D02*
X21242395Y-81241904D01*
X21242395Y-81241904D02*
X21261443Y-81203809D01*
X21261443Y-81203809D02*
X21280490Y-81184762D01*
X21280490Y-81184762D02*
X21318586Y-81165714D01*
X21318586Y-81165714D02*
X21375728Y-81165714D01*
X21375728Y-81165714D02*
X21413824Y-81184762D01*
X21413824Y-81184762D02*
X21432871Y-81203809D01*
X21432871Y-81203809D02*
X21451919Y-81241904D01*
X21451919Y-81241904D02*
X21451919Y-81394285D01*
X21242395Y-80918095D02*
X21242395Y-80841904D01*
X21242395Y-80841904D02*
X21261443Y-80803809D01*
X21261443Y-80803809D02*
X21299538Y-80765714D01*
X21299538Y-80765714D02*
X21375728Y-80746666D01*
X21375728Y-80746666D02*
X21509062Y-80746666D01*
X21509062Y-80746666D02*
X21585252Y-80765714D01*
X21585252Y-80765714D02*
X21623348Y-80803809D01*
X21623348Y-80803809D02*
X21642395Y-80841904D01*
X21642395Y-80841904D02*
X21642395Y-80918095D01*
X21642395Y-80918095D02*
X21623348Y-80956190D01*
X21623348Y-80956190D02*
X21585252Y-80994285D01*
X21585252Y-80994285D02*
X21509062Y-81013333D01*
X21509062Y-81013333D02*
X21375728Y-81013333D01*
X21375728Y-81013333D02*
X21299538Y-80994285D01*
X21299538Y-80994285D02*
X21261443Y-80956190D01*
X21261443Y-80956190D02*
X21242395Y-80918095D01*
X21242395Y-80575237D02*
X21566205Y-80575237D01*
X21566205Y-80575237D02*
X21604300Y-80556190D01*
X21604300Y-80556190D02*
X21623348Y-80537142D01*
X21623348Y-80537142D02*
X21642395Y-80499047D01*
X21642395Y-80499047D02*
X21642395Y-80422856D01*
X21642395Y-80422856D02*
X21623348Y-80384761D01*
X21623348Y-80384761D02*
X21604300Y-80365714D01*
X21604300Y-80365714D02*
X21566205Y-80346666D01*
X21566205Y-80346666D02*
X21242395Y-80346666D01*
X21242395Y-80213332D02*
X21242395Y-79984761D01*
X21642395Y-80099047D02*
X21242395Y-80099047D01*
X21642395Y-93948095D02*
X21242395Y-93948095D01*
X21642395Y-93719524D02*
X21413824Y-93890953D01*
X21242395Y-93719524D02*
X21470967Y-93948095D01*
X21432871Y-93548095D02*
X21432871Y-93414762D01*
X21642395Y-93357619D02*
X21642395Y-93548095D01*
X21642395Y-93548095D02*
X21242395Y-93548095D01*
X21242395Y-93548095D02*
X21242395Y-93357619D01*
X21432871Y-93186190D02*
X21432871Y-93052857D01*
X21642395Y-92995714D02*
X21642395Y-93186190D01*
X21642395Y-93186190D02*
X21242395Y-93186190D01*
X21242395Y-93186190D02*
X21242395Y-92995714D01*
X21642395Y-92824285D02*
X21242395Y-92824285D01*
X21242395Y-92824285D02*
X21242395Y-92671904D01*
X21242395Y-92671904D02*
X21261443Y-92633809D01*
X21261443Y-92633809D02*
X21280490Y-92614762D01*
X21280490Y-92614762D02*
X21318586Y-92595714D01*
X21318586Y-92595714D02*
X21375728Y-92595714D01*
X21375728Y-92595714D02*
X21413824Y-92614762D01*
X21413824Y-92614762D02*
X21432871Y-92633809D01*
X21432871Y-92633809D02*
X21451919Y-92671904D01*
X21451919Y-92671904D02*
X21451919Y-92824285D01*
X21242395Y-92348095D02*
X21242395Y-92271904D01*
X21242395Y-92271904D02*
X21261443Y-92233809D01*
X21261443Y-92233809D02*
X21299538Y-92195714D01*
X21299538Y-92195714D02*
X21375728Y-92176666D01*
X21375728Y-92176666D02*
X21509062Y-92176666D01*
X21509062Y-92176666D02*
X21585252Y-92195714D01*
X21585252Y-92195714D02*
X21623348Y-92233809D01*
X21623348Y-92233809D02*
X21642395Y-92271904D01*
X21642395Y-92271904D02*
X21642395Y-92348095D01*
X21642395Y-92348095D02*
X21623348Y-92386190D01*
X21623348Y-92386190D02*
X21585252Y-92424285D01*
X21585252Y-92424285D02*
X21509062Y-92443333D01*
X21509062Y-92443333D02*
X21375728Y-92443333D01*
X21375728Y-92443333D02*
X21299538Y-92424285D01*
X21299538Y-92424285D02*
X21261443Y-92386190D01*
X21261443Y-92386190D02*
X21242395Y-92348095D01*
X21242395Y-92005237D02*
X21566205Y-92005237D01*
X21566205Y-92005237D02*
X21604300Y-91986190D01*
X21604300Y-91986190D02*
X21623348Y-91967142D01*
X21623348Y-91967142D02*
X21642395Y-91929047D01*
X21642395Y-91929047D02*
X21642395Y-91852856D01*
X21642395Y-91852856D02*
X21623348Y-91814761D01*
X21623348Y-91814761D02*
X21604300Y-91795714D01*
X21604300Y-91795714D02*
X21566205Y-91776666D01*
X21566205Y-91776666D02*
X21242395Y-91776666D01*
X21242395Y-91643332D02*
X21242395Y-91414761D01*
X21642395Y-91529047D02*
X21242395Y-91529047D01*
X131122395Y-105378095D02*
X130722395Y-105378095D01*
X131122395Y-105149524D02*
X130893824Y-105320953D01*
X130722395Y-105149524D02*
X130950967Y-105378095D01*
X130912871Y-104978095D02*
X130912871Y-104844762D01*
X131122395Y-104787619D02*
X131122395Y-104978095D01*
X131122395Y-104978095D02*
X130722395Y-104978095D01*
X130722395Y-104978095D02*
X130722395Y-104787619D01*
X130912871Y-104616190D02*
X130912871Y-104482857D01*
X131122395Y-104425714D02*
X131122395Y-104616190D01*
X131122395Y-104616190D02*
X130722395Y-104616190D01*
X130722395Y-104616190D02*
X130722395Y-104425714D01*
X131122395Y-104254285D02*
X130722395Y-104254285D01*
X130722395Y-104254285D02*
X130722395Y-104101904D01*
X130722395Y-104101904D02*
X130741443Y-104063809D01*
X130741443Y-104063809D02*
X130760490Y-104044762D01*
X130760490Y-104044762D02*
X130798586Y-104025714D01*
X130798586Y-104025714D02*
X130855728Y-104025714D01*
X130855728Y-104025714D02*
X130893824Y-104044762D01*
X130893824Y-104044762D02*
X130912871Y-104063809D01*
X130912871Y-104063809D02*
X130931919Y-104101904D01*
X130931919Y-104101904D02*
X130931919Y-104254285D01*
X130722395Y-103778095D02*
X130722395Y-103701904D01*
X130722395Y-103701904D02*
X130741443Y-103663809D01*
X130741443Y-103663809D02*
X130779538Y-103625714D01*
X130779538Y-103625714D02*
X130855728Y-103606666D01*
X130855728Y-103606666D02*
X130989062Y-103606666D01*
X130989062Y-103606666D02*
X131065252Y-103625714D01*
X131065252Y-103625714D02*
X131103348Y-103663809D01*
X131103348Y-103663809D02*
X131122395Y-103701904D01*
X131122395Y-103701904D02*
X131122395Y-103778095D01*
X131122395Y-103778095D02*
X131103348Y-103816190D01*
X131103348Y-103816190D02*
X131065252Y-103854285D01*
X131065252Y-103854285D02*
X130989062Y-103873333D01*
X130989062Y-103873333D02*
X130855728Y-103873333D01*
X130855728Y-103873333D02*
X130779538Y-103854285D01*
X130779538Y-103854285D02*
X130741443Y-103816190D01*
X130741443Y-103816190D02*
X130722395Y-103778095D01*
X130722395Y-103435237D02*
X131046205Y-103435237D01*
X131046205Y-103435237D02*
X131084300Y-103416190D01*
X131084300Y-103416190D02*
X131103348Y-103397142D01*
X131103348Y-103397142D02*
X131122395Y-103359047D01*
X131122395Y-103359047D02*
X131122395Y-103282856D01*
X131122395Y-103282856D02*
X131103348Y-103244761D01*
X131103348Y-103244761D02*
X131084300Y-103225714D01*
X131084300Y-103225714D02*
X131046205Y-103206666D01*
X131046205Y-103206666D02*
X130722395Y-103206666D01*
X130722395Y-103073332D02*
X130722395Y-102844761D01*
X131122395Y-102959047D02*
X130722395Y-102959047D01*
X131122395Y-93948095D02*
X130722395Y-93948095D01*
X131122395Y-93719524D02*
X130893824Y-93890953D01*
X130722395Y-93719524D02*
X130950967Y-93948095D01*
X130912871Y-93548095D02*
X130912871Y-93414762D01*
X131122395Y-93357619D02*
X131122395Y-93548095D01*
X131122395Y-93548095D02*
X130722395Y-93548095D01*
X130722395Y-93548095D02*
X130722395Y-93357619D01*
X130912871Y-93186190D02*
X130912871Y-93052857D01*
X131122395Y-92995714D02*
X131122395Y-93186190D01*
X131122395Y-93186190D02*
X130722395Y-93186190D01*
X130722395Y-93186190D02*
X130722395Y-92995714D01*
X131122395Y-92824285D02*
X130722395Y-92824285D01*
X130722395Y-92824285D02*
X130722395Y-92671904D01*
X130722395Y-92671904D02*
X130741443Y-92633809D01*
X130741443Y-92633809D02*
X130760490Y-92614762D01*
X130760490Y-92614762D02*
X130798586Y-92595714D01*
X130798586Y-92595714D02*
X130855728Y-92595714D01*
X130855728Y-92595714D02*
X130893824Y-92614762D01*
X130893824Y-92614762D02*
X130912871Y-92633809D01*
X130912871Y-92633809D02*
X130931919Y-92671904D01*
X130931919Y-92671904D02*
X130931919Y-92824285D01*
X130722395Y-92348095D02*
X130722395Y-92271904D01*
X130722395Y-92271904D02*
X130741443Y-92233809D01*
X130741443Y-92233809D02*
X130779538Y-92195714D01*
X130779538Y-92195714D02*
X130855728Y-92176666D01*
X130855728Y-92176666D02*
X130989062Y-92176666D01*
X130989062Y-92176666D02*
X131065252Y-92195714D01*
X131065252Y-92195714D02*
X131103348Y-92233809D01*
X131103348Y-92233809D02*
X131122395Y-92271904D01*
X131122395Y-92271904D02*
X131122395Y-92348095D01*
X131122395Y-92348095D02*
X131103348Y-92386190D01*
X131103348Y-92386190D02*
X131065252Y-92424285D01*
X131065252Y-92424285D02*
X130989062Y-92443333D01*
X130989062Y-92443333D02*
X130855728Y-92443333D01*
X130855728Y-92443333D02*
X130779538Y-92424285D01*
X130779538Y-92424285D02*
X130741443Y-92386190D01*
X130741443Y-92386190D02*
X130722395Y-92348095D01*
X130722395Y-92005237D02*
X131046205Y-92005237D01*
X131046205Y-92005237D02*
X131084300Y-91986190D01*
X131084300Y-91986190D02*
X131103348Y-91967142D01*
X131103348Y-91967142D02*
X131122395Y-91929047D01*
X131122395Y-91929047D02*
X131122395Y-91852856D01*
X131122395Y-91852856D02*
X131103348Y-91814761D01*
X131103348Y-91814761D02*
X131084300Y-91795714D01*
X131084300Y-91795714D02*
X131046205Y-91776666D01*
X131046205Y-91776666D02*
X130722395Y-91776666D01*
X130722395Y-91643332D02*
X130722395Y-91414761D01*
X131122395Y-91529047D02*
X130722395Y-91529047D01*
X21642395Y-105378095D02*
X21242395Y-105378095D01*
X21642395Y-105149524D02*
X21413824Y-105320953D01*
X21242395Y-105149524D02*
X21470967Y-105378095D01*
X21432871Y-104978095D02*
X21432871Y-104844762D01*
X21642395Y-104787619D02*
X21642395Y-104978095D01*
X21642395Y-104978095D02*
X21242395Y-104978095D01*
X21242395Y-104978095D02*
X21242395Y-104787619D01*
X21432871Y-104616190D02*
X21432871Y-104482857D01*
X21642395Y-104425714D02*
X21642395Y-104616190D01*
X21642395Y-104616190D02*
X21242395Y-104616190D01*
X21242395Y-104616190D02*
X21242395Y-104425714D01*
X21642395Y-104254285D02*
X21242395Y-104254285D01*
X21242395Y-104254285D02*
X21242395Y-104101904D01*
X21242395Y-104101904D02*
X21261443Y-104063809D01*
X21261443Y-104063809D02*
X21280490Y-104044762D01*
X21280490Y-104044762D02*
X21318586Y-104025714D01*
X21318586Y-104025714D02*
X21375728Y-104025714D01*
X21375728Y-104025714D02*
X21413824Y-104044762D01*
X21413824Y-104044762D02*
X21432871Y-104063809D01*
X21432871Y-104063809D02*
X21451919Y-104101904D01*
X21451919Y-104101904D02*
X21451919Y-104254285D01*
X21242395Y-103778095D02*
X21242395Y-103701904D01*
X21242395Y-103701904D02*
X21261443Y-103663809D01*
X21261443Y-103663809D02*
X21299538Y-103625714D01*
X21299538Y-103625714D02*
X21375728Y-103606666D01*
X21375728Y-103606666D02*
X21509062Y-103606666D01*
X21509062Y-103606666D02*
X21585252Y-103625714D01*
X21585252Y-103625714D02*
X21623348Y-103663809D01*
X21623348Y-103663809D02*
X21642395Y-103701904D01*
X21642395Y-103701904D02*
X21642395Y-103778095D01*
X21642395Y-103778095D02*
X21623348Y-103816190D01*
X21623348Y-103816190D02*
X21585252Y-103854285D01*
X21585252Y-103854285D02*
X21509062Y-103873333D01*
X21509062Y-103873333D02*
X21375728Y-103873333D01*
X21375728Y-103873333D02*
X21299538Y-103854285D01*
X21299538Y-103854285D02*
X21261443Y-103816190D01*
X21261443Y-103816190D02*
X21242395Y-103778095D01*
X21242395Y-103435237D02*
X21566205Y-103435237D01*
X21566205Y-103435237D02*
X21604300Y-103416190D01*
X21604300Y-103416190D02*
X21623348Y-103397142D01*
X21623348Y-103397142D02*
X21642395Y-103359047D01*
X21642395Y-103359047D02*
X21642395Y-103282856D01*
X21642395Y-103282856D02*
X21623348Y-103244761D01*
X21623348Y-103244761D02*
X21604300Y-103225714D01*
X21604300Y-103225714D02*
X21566205Y-103206666D01*
X21566205Y-103206666D02*
X21242395Y-103206666D01*
X21242395Y-103073332D02*
X21242395Y-102844761D01*
X21642395Y-102959047D02*
X21242395Y-102959047D01*
X131122395Y-128238095D02*
X130722395Y-128238095D01*
X131122395Y-128009524D02*
X130893824Y-128180953D01*
X130722395Y-128009524D02*
X130950967Y-128238095D01*
X130912871Y-127838095D02*
X130912871Y-127704762D01*
X131122395Y-127647619D02*
X131122395Y-127838095D01*
X131122395Y-127838095D02*
X130722395Y-127838095D01*
X130722395Y-127838095D02*
X130722395Y-127647619D01*
X130912871Y-127476190D02*
X130912871Y-127342857D01*
X131122395Y-127285714D02*
X131122395Y-127476190D01*
X131122395Y-127476190D02*
X130722395Y-127476190D01*
X130722395Y-127476190D02*
X130722395Y-127285714D01*
X131122395Y-127114285D02*
X130722395Y-127114285D01*
X130722395Y-127114285D02*
X130722395Y-126961904D01*
X130722395Y-126961904D02*
X130741443Y-126923809D01*
X130741443Y-126923809D02*
X130760490Y-126904762D01*
X130760490Y-126904762D02*
X130798586Y-126885714D01*
X130798586Y-126885714D02*
X130855728Y-126885714D01*
X130855728Y-126885714D02*
X130893824Y-126904762D01*
X130893824Y-126904762D02*
X130912871Y-126923809D01*
X130912871Y-126923809D02*
X130931919Y-126961904D01*
X130931919Y-126961904D02*
X130931919Y-127114285D01*
X130722395Y-126638095D02*
X130722395Y-126561904D01*
X130722395Y-126561904D02*
X130741443Y-126523809D01*
X130741443Y-126523809D02*
X130779538Y-126485714D01*
X130779538Y-126485714D02*
X130855728Y-126466666D01*
X130855728Y-126466666D02*
X130989062Y-126466666D01*
X130989062Y-126466666D02*
X131065252Y-126485714D01*
X131065252Y-126485714D02*
X131103348Y-126523809D01*
X131103348Y-126523809D02*
X131122395Y-126561904D01*
X131122395Y-126561904D02*
X131122395Y-126638095D01*
X131122395Y-126638095D02*
X131103348Y-126676190D01*
X131103348Y-126676190D02*
X131065252Y-126714285D01*
X131065252Y-126714285D02*
X130989062Y-126733333D01*
X130989062Y-126733333D02*
X130855728Y-126733333D01*
X130855728Y-126733333D02*
X130779538Y-126714285D01*
X130779538Y-126714285D02*
X130741443Y-126676190D01*
X130741443Y-126676190D02*
X130722395Y-126638095D01*
X130722395Y-126295237D02*
X131046205Y-126295237D01*
X131046205Y-126295237D02*
X131084300Y-126276190D01*
X131084300Y-126276190D02*
X131103348Y-126257142D01*
X131103348Y-126257142D02*
X131122395Y-126219047D01*
X131122395Y-126219047D02*
X131122395Y-126142856D01*
X131122395Y-126142856D02*
X131103348Y-126104761D01*
X131103348Y-126104761D02*
X131084300Y-126085714D01*
X131084300Y-126085714D02*
X131046205Y-126066666D01*
X131046205Y-126066666D02*
X130722395Y-126066666D01*
X130722395Y-125933332D02*
X130722395Y-125704761D01*
X131122395Y-125819047D02*
X130722395Y-125819047D01*
X21642395Y-128238095D02*
X21242395Y-128238095D01*
X21642395Y-128009524D02*
X21413824Y-128180953D01*
X21242395Y-128009524D02*
X21470967Y-128238095D01*
X21432871Y-127838095D02*
X21432871Y-127704762D01*
X21642395Y-127647619D02*
X21642395Y-127838095D01*
X21642395Y-127838095D02*
X21242395Y-127838095D01*
X21242395Y-127838095D02*
X21242395Y-127647619D01*
X21432871Y-127476190D02*
X21432871Y-127342857D01*
X21642395Y-127285714D02*
X21642395Y-127476190D01*
X21642395Y-127476190D02*
X21242395Y-127476190D01*
X21242395Y-127476190D02*
X21242395Y-127285714D01*
X21642395Y-127114285D02*
X21242395Y-127114285D01*
X21242395Y-127114285D02*
X21242395Y-126961904D01*
X21242395Y-126961904D02*
X21261443Y-126923809D01*
X21261443Y-126923809D02*
X21280490Y-126904762D01*
X21280490Y-126904762D02*
X21318586Y-126885714D01*
X21318586Y-126885714D02*
X21375728Y-126885714D01*
X21375728Y-126885714D02*
X21413824Y-126904762D01*
X21413824Y-126904762D02*
X21432871Y-126923809D01*
X21432871Y-126923809D02*
X21451919Y-126961904D01*
X21451919Y-126961904D02*
X21451919Y-127114285D01*
X21242395Y-126638095D02*
X21242395Y-126561904D01*
X21242395Y-126561904D02*
X21261443Y-126523809D01*
X21261443Y-126523809D02*
X21299538Y-126485714D01*
X21299538Y-126485714D02*
X21375728Y-126466666D01*
X21375728Y-126466666D02*
X21509062Y-126466666D01*
X21509062Y-126466666D02*
X21585252Y-126485714D01*
X21585252Y-126485714D02*
X21623348Y-126523809D01*
X21623348Y-126523809D02*
X21642395Y-126561904D01*
X21642395Y-126561904D02*
X21642395Y-126638095D01*
X21642395Y-126638095D02*
X21623348Y-126676190D01*
X21623348Y-126676190D02*
X21585252Y-126714285D01*
X21585252Y-126714285D02*
X21509062Y-126733333D01*
X21509062Y-126733333D02*
X21375728Y-126733333D01*
X21375728Y-126733333D02*
X21299538Y-126714285D01*
X21299538Y-126714285D02*
X21261443Y-126676190D01*
X21261443Y-126676190D02*
X21242395Y-126638095D01*
X21242395Y-126295237D02*
X21566205Y-126295237D01*
X21566205Y-126295237D02*
X21604300Y-126276190D01*
X21604300Y-126276190D02*
X21623348Y-126257142D01*
X21623348Y-126257142D02*
X21642395Y-126219047D01*
X21642395Y-126219047D02*
X21642395Y-126142856D01*
X21642395Y-126142856D02*
X21623348Y-126104761D01*
X21623348Y-126104761D02*
X21604300Y-126085714D01*
X21604300Y-126085714D02*
X21566205Y-126066666D01*
X21566205Y-126066666D02*
X21242395Y-126066666D01*
X21242395Y-125933332D02*
X21242395Y-125704761D01*
X21642395Y-125819047D02*
X21242395Y-125819047D01*
X21642395Y-48228095D02*
X21242395Y-48228095D01*
X21642395Y-47999524D02*
X21413824Y-48170953D01*
X21242395Y-47999524D02*
X21470967Y-48228095D01*
X21432871Y-47828095D02*
X21432871Y-47694762D01*
X21642395Y-47637619D02*
X21642395Y-47828095D01*
X21642395Y-47828095D02*
X21242395Y-47828095D01*
X21242395Y-47828095D02*
X21242395Y-47637619D01*
X21432871Y-47466190D02*
X21432871Y-47332857D01*
X21642395Y-47275714D02*
X21642395Y-47466190D01*
X21642395Y-47466190D02*
X21242395Y-47466190D01*
X21242395Y-47466190D02*
X21242395Y-47275714D01*
X21642395Y-47104285D02*
X21242395Y-47104285D01*
X21242395Y-47104285D02*
X21242395Y-46951904D01*
X21242395Y-46951904D02*
X21261443Y-46913809D01*
X21261443Y-46913809D02*
X21280490Y-46894762D01*
X21280490Y-46894762D02*
X21318586Y-46875714D01*
X21318586Y-46875714D02*
X21375728Y-46875714D01*
X21375728Y-46875714D02*
X21413824Y-46894762D01*
X21413824Y-46894762D02*
X21432871Y-46913809D01*
X21432871Y-46913809D02*
X21451919Y-46951904D01*
X21451919Y-46951904D02*
X21451919Y-47104285D01*
X21242395Y-46628095D02*
X21242395Y-46551904D01*
X21242395Y-46551904D02*
X21261443Y-46513809D01*
X21261443Y-46513809D02*
X21299538Y-46475714D01*
X21299538Y-46475714D02*
X21375728Y-46456666D01*
X21375728Y-46456666D02*
X21509062Y-46456666D01*
X21509062Y-46456666D02*
X21585252Y-46475714D01*
X21585252Y-46475714D02*
X21623348Y-46513809D01*
X21623348Y-46513809D02*
X21642395Y-46551904D01*
X21642395Y-46551904D02*
X21642395Y-46628095D01*
X21642395Y-46628095D02*
X21623348Y-46666190D01*
X21623348Y-46666190D02*
X21585252Y-46704285D01*
X21585252Y-46704285D02*
X21509062Y-46723333D01*
X21509062Y-46723333D02*
X21375728Y-46723333D01*
X21375728Y-46723333D02*
X21299538Y-46704285D01*
X21299538Y-46704285D02*
X21261443Y-46666190D01*
X21261443Y-46666190D02*
X21242395Y-46628095D01*
X21242395Y-46285237D02*
X21566205Y-46285237D01*
X21566205Y-46285237D02*
X21604300Y-46266190D01*
X21604300Y-46266190D02*
X21623348Y-46247142D01*
X21623348Y-46247142D02*
X21642395Y-46209047D01*
X21642395Y-46209047D02*
X21642395Y-46132856D01*
X21642395Y-46132856D02*
X21623348Y-46094761D01*
X21623348Y-46094761D02*
X21604300Y-46075714D01*
X21604300Y-46075714D02*
X21566205Y-46056666D01*
X21566205Y-46056666D02*
X21242395Y-46056666D01*
X21242395Y-45923332D02*
X21242395Y-45694761D01*
X21642395Y-45809047D02*
X21242395Y-45809047D01*
X131122395Y-71088095D02*
X130722395Y-71088095D01*
X131122395Y-70859524D02*
X130893824Y-71030953D01*
X130722395Y-70859524D02*
X130950967Y-71088095D01*
X130912871Y-70688095D02*
X130912871Y-70554762D01*
X131122395Y-70497619D02*
X131122395Y-70688095D01*
X131122395Y-70688095D02*
X130722395Y-70688095D01*
X130722395Y-70688095D02*
X130722395Y-70497619D01*
X130912871Y-70326190D02*
X130912871Y-70192857D01*
X131122395Y-70135714D02*
X131122395Y-70326190D01*
X131122395Y-70326190D02*
X130722395Y-70326190D01*
X130722395Y-70326190D02*
X130722395Y-70135714D01*
X131122395Y-69964285D02*
X130722395Y-69964285D01*
X130722395Y-69964285D02*
X130722395Y-69811904D01*
X130722395Y-69811904D02*
X130741443Y-69773809D01*
X130741443Y-69773809D02*
X130760490Y-69754762D01*
X130760490Y-69754762D02*
X130798586Y-69735714D01*
X130798586Y-69735714D02*
X130855728Y-69735714D01*
X130855728Y-69735714D02*
X130893824Y-69754762D01*
X130893824Y-69754762D02*
X130912871Y-69773809D01*
X130912871Y-69773809D02*
X130931919Y-69811904D01*
X130931919Y-69811904D02*
X130931919Y-69964285D01*
X130722395Y-69488095D02*
X130722395Y-69411904D01*
X130722395Y-69411904D02*
X130741443Y-69373809D01*
X130741443Y-69373809D02*
X130779538Y-69335714D01*
X130779538Y-69335714D02*
X130855728Y-69316666D01*
X130855728Y-69316666D02*
X130989062Y-69316666D01*
X130989062Y-69316666D02*
X131065252Y-69335714D01*
X131065252Y-69335714D02*
X131103348Y-69373809D01*
X131103348Y-69373809D02*
X131122395Y-69411904D01*
X131122395Y-69411904D02*
X131122395Y-69488095D01*
X131122395Y-69488095D02*
X131103348Y-69526190D01*
X131103348Y-69526190D02*
X131065252Y-69564285D01*
X131065252Y-69564285D02*
X130989062Y-69583333D01*
X130989062Y-69583333D02*
X130855728Y-69583333D01*
X130855728Y-69583333D02*
X130779538Y-69564285D01*
X130779538Y-69564285D02*
X130741443Y-69526190D01*
X130741443Y-69526190D02*
X130722395Y-69488095D01*
X130722395Y-69145237D02*
X131046205Y-69145237D01*
X131046205Y-69145237D02*
X131084300Y-69126190D01*
X131084300Y-69126190D02*
X131103348Y-69107142D01*
X131103348Y-69107142D02*
X131122395Y-69069047D01*
X131122395Y-69069047D02*
X131122395Y-68992856D01*
X131122395Y-68992856D02*
X131103348Y-68954761D01*
X131103348Y-68954761D02*
X131084300Y-68935714D01*
X131084300Y-68935714D02*
X131046205Y-68916666D01*
X131046205Y-68916666D02*
X130722395Y-68916666D01*
X130722395Y-68783332D02*
X130722395Y-68554761D01*
X131122395Y-68669047D02*
X130722395Y-68669047D01*
X131122395Y-82518095D02*
X130722395Y-82518095D01*
X131122395Y-82289524D02*
X130893824Y-82460953D01*
X130722395Y-82289524D02*
X130950967Y-82518095D01*
X130912871Y-82118095D02*
X130912871Y-81984762D01*
X131122395Y-81927619D02*
X131122395Y-82118095D01*
X131122395Y-82118095D02*
X130722395Y-82118095D01*
X130722395Y-82118095D02*
X130722395Y-81927619D01*
X130912871Y-81756190D02*
X130912871Y-81622857D01*
X131122395Y-81565714D02*
X131122395Y-81756190D01*
X131122395Y-81756190D02*
X130722395Y-81756190D01*
X130722395Y-81756190D02*
X130722395Y-81565714D01*
X131122395Y-81394285D02*
X130722395Y-81394285D01*
X130722395Y-81394285D02*
X130722395Y-81241904D01*
X130722395Y-81241904D02*
X130741443Y-81203809D01*
X130741443Y-81203809D02*
X130760490Y-81184762D01*
X130760490Y-81184762D02*
X130798586Y-81165714D01*
X130798586Y-81165714D02*
X130855728Y-81165714D01*
X130855728Y-81165714D02*
X130893824Y-81184762D01*
X130893824Y-81184762D02*
X130912871Y-81203809D01*
X130912871Y-81203809D02*
X130931919Y-81241904D01*
X130931919Y-81241904D02*
X130931919Y-81394285D01*
X130722395Y-80918095D02*
X130722395Y-80841904D01*
X130722395Y-80841904D02*
X130741443Y-80803809D01*
X130741443Y-80803809D02*
X130779538Y-80765714D01*
X130779538Y-80765714D02*
X130855728Y-80746666D01*
X130855728Y-80746666D02*
X130989062Y-80746666D01*
X130989062Y-80746666D02*
X131065252Y-80765714D01*
X131065252Y-80765714D02*
X131103348Y-80803809D01*
X131103348Y-80803809D02*
X131122395Y-80841904D01*
X131122395Y-80841904D02*
X131122395Y-80918095D01*
X131122395Y-80918095D02*
X131103348Y-80956190D01*
X131103348Y-80956190D02*
X131065252Y-80994285D01*
X131065252Y-80994285D02*
X130989062Y-81013333D01*
X130989062Y-81013333D02*
X130855728Y-81013333D01*
X130855728Y-81013333D02*
X130779538Y-80994285D01*
X130779538Y-80994285D02*
X130741443Y-80956190D01*
X130741443Y-80956190D02*
X130722395Y-80918095D01*
X130722395Y-80575237D02*
X131046205Y-80575237D01*
X131046205Y-80575237D02*
X131084300Y-80556190D01*
X131084300Y-80556190D02*
X131103348Y-80537142D01*
X131103348Y-80537142D02*
X131122395Y-80499047D01*
X131122395Y-80499047D02*
X131122395Y-80422856D01*
X131122395Y-80422856D02*
X131103348Y-80384761D01*
X131103348Y-80384761D02*
X131084300Y-80365714D01*
X131084300Y-80365714D02*
X131046205Y-80346666D01*
X131046205Y-80346666D02*
X130722395Y-80346666D01*
X130722395Y-80213332D02*
X130722395Y-79984761D01*
X131122395Y-80099047D02*
X130722395Y-80099047D01*
X131122395Y-116808095D02*
X130722395Y-116808095D01*
X131122395Y-116579524D02*
X130893824Y-116750953D01*
X130722395Y-116579524D02*
X130950967Y-116808095D01*
X130912871Y-116408095D02*
X130912871Y-116274762D01*
X131122395Y-116217619D02*
X131122395Y-116408095D01*
X131122395Y-116408095D02*
X130722395Y-116408095D01*
X130722395Y-116408095D02*
X130722395Y-116217619D01*
X130912871Y-116046190D02*
X130912871Y-115912857D01*
X131122395Y-115855714D02*
X131122395Y-116046190D01*
X131122395Y-116046190D02*
X130722395Y-116046190D01*
X130722395Y-116046190D02*
X130722395Y-115855714D01*
X131122395Y-115684285D02*
X130722395Y-115684285D01*
X130722395Y-115684285D02*
X130722395Y-115531904D01*
X130722395Y-115531904D02*
X130741443Y-115493809D01*
X130741443Y-115493809D02*
X130760490Y-115474762D01*
X130760490Y-115474762D02*
X130798586Y-115455714D01*
X130798586Y-115455714D02*
X130855728Y-115455714D01*
X130855728Y-115455714D02*
X130893824Y-115474762D01*
X130893824Y-115474762D02*
X130912871Y-115493809D01*
X130912871Y-115493809D02*
X130931919Y-115531904D01*
X130931919Y-115531904D02*
X130931919Y-115684285D01*
X130722395Y-115208095D02*
X130722395Y-115131904D01*
X130722395Y-115131904D02*
X130741443Y-115093809D01*
X130741443Y-115093809D02*
X130779538Y-115055714D01*
X130779538Y-115055714D02*
X130855728Y-115036666D01*
X130855728Y-115036666D02*
X130989062Y-115036666D01*
X130989062Y-115036666D02*
X131065252Y-115055714D01*
X131065252Y-115055714D02*
X131103348Y-115093809D01*
X131103348Y-115093809D02*
X131122395Y-115131904D01*
X131122395Y-115131904D02*
X131122395Y-115208095D01*
X131122395Y-115208095D02*
X131103348Y-115246190D01*
X131103348Y-115246190D02*
X131065252Y-115284285D01*
X131065252Y-115284285D02*
X130989062Y-115303333D01*
X130989062Y-115303333D02*
X130855728Y-115303333D01*
X130855728Y-115303333D02*
X130779538Y-115284285D01*
X130779538Y-115284285D02*
X130741443Y-115246190D01*
X130741443Y-115246190D02*
X130722395Y-115208095D01*
X130722395Y-114865237D02*
X131046205Y-114865237D01*
X131046205Y-114865237D02*
X131084300Y-114846190D01*
X131084300Y-114846190D02*
X131103348Y-114827142D01*
X131103348Y-114827142D02*
X131122395Y-114789047D01*
X131122395Y-114789047D02*
X131122395Y-114712856D01*
X131122395Y-114712856D02*
X131103348Y-114674761D01*
X131103348Y-114674761D02*
X131084300Y-114655714D01*
X131084300Y-114655714D02*
X131046205Y-114636666D01*
X131046205Y-114636666D02*
X130722395Y-114636666D01*
X130722395Y-114503332D02*
X130722395Y-114274761D01*
X131122395Y-114389047D02*
X130722395Y-114389047D01*
X21642395Y-59658095D02*
X21242395Y-59658095D01*
X21642395Y-59429524D02*
X21413824Y-59600953D01*
X21242395Y-59429524D02*
X21470967Y-59658095D01*
X21432871Y-59258095D02*
X21432871Y-59124762D01*
X21642395Y-59067619D02*
X21642395Y-59258095D01*
X21642395Y-59258095D02*
X21242395Y-59258095D01*
X21242395Y-59258095D02*
X21242395Y-59067619D01*
X21432871Y-58896190D02*
X21432871Y-58762857D01*
X21642395Y-58705714D02*
X21642395Y-58896190D01*
X21642395Y-58896190D02*
X21242395Y-58896190D01*
X21242395Y-58896190D02*
X21242395Y-58705714D01*
X21642395Y-58534285D02*
X21242395Y-58534285D01*
X21242395Y-58534285D02*
X21242395Y-58381904D01*
X21242395Y-58381904D02*
X21261443Y-58343809D01*
X21261443Y-58343809D02*
X21280490Y-58324762D01*
X21280490Y-58324762D02*
X21318586Y-58305714D01*
X21318586Y-58305714D02*
X21375728Y-58305714D01*
X21375728Y-58305714D02*
X21413824Y-58324762D01*
X21413824Y-58324762D02*
X21432871Y-58343809D01*
X21432871Y-58343809D02*
X21451919Y-58381904D01*
X21451919Y-58381904D02*
X21451919Y-58534285D01*
X21242395Y-58058095D02*
X21242395Y-57981904D01*
X21242395Y-57981904D02*
X21261443Y-57943809D01*
X21261443Y-57943809D02*
X21299538Y-57905714D01*
X21299538Y-57905714D02*
X21375728Y-57886666D01*
X21375728Y-57886666D02*
X21509062Y-57886666D01*
X21509062Y-57886666D02*
X21585252Y-57905714D01*
X21585252Y-57905714D02*
X21623348Y-57943809D01*
X21623348Y-57943809D02*
X21642395Y-57981904D01*
X21642395Y-57981904D02*
X21642395Y-58058095D01*
X21642395Y-58058095D02*
X21623348Y-58096190D01*
X21623348Y-58096190D02*
X21585252Y-58134285D01*
X21585252Y-58134285D02*
X21509062Y-58153333D01*
X21509062Y-58153333D02*
X21375728Y-58153333D01*
X21375728Y-58153333D02*
X21299538Y-58134285D01*
X21299538Y-58134285D02*
X21261443Y-58096190D01*
X21261443Y-58096190D02*
X21242395Y-58058095D01*
X21242395Y-57715237D02*
X21566205Y-57715237D01*
X21566205Y-57715237D02*
X21604300Y-57696190D01*
X21604300Y-57696190D02*
X21623348Y-57677142D01*
X21623348Y-57677142D02*
X21642395Y-57639047D01*
X21642395Y-57639047D02*
X21642395Y-57562856D01*
X21642395Y-57562856D02*
X21623348Y-57524761D01*
X21623348Y-57524761D02*
X21604300Y-57505714D01*
X21604300Y-57505714D02*
X21566205Y-57486666D01*
X21566205Y-57486666D02*
X21242395Y-57486666D01*
X21242395Y-57353332D02*
X21242395Y-57124761D01*
X21642395Y-57239047D02*
X21242395Y-57239047D01*
X21642395Y-71088095D02*
X21242395Y-71088095D01*
X21642395Y-70859524D02*
X21413824Y-71030953D01*
X21242395Y-70859524D02*
X21470967Y-71088095D01*
X21432871Y-70688095D02*
X21432871Y-70554762D01*
X21642395Y-70497619D02*
X21642395Y-70688095D01*
X21642395Y-70688095D02*
X21242395Y-70688095D01*
X21242395Y-70688095D02*
X21242395Y-70497619D01*
X21432871Y-70326190D02*
X21432871Y-70192857D01*
X21642395Y-70135714D02*
X21642395Y-70326190D01*
X21642395Y-70326190D02*
X21242395Y-70326190D01*
X21242395Y-70326190D02*
X21242395Y-70135714D01*
X21642395Y-69964285D02*
X21242395Y-69964285D01*
X21242395Y-69964285D02*
X21242395Y-69811904D01*
X21242395Y-69811904D02*
X21261443Y-69773809D01*
X21261443Y-69773809D02*
X21280490Y-69754762D01*
X21280490Y-69754762D02*
X21318586Y-69735714D01*
X21318586Y-69735714D02*
X21375728Y-69735714D01*
X21375728Y-69735714D02*
X21413824Y-69754762D01*
X21413824Y-69754762D02*
X21432871Y-69773809D01*
X21432871Y-69773809D02*
X21451919Y-69811904D01*
X21451919Y-69811904D02*
X21451919Y-69964285D01*
X21242395Y-69488095D02*
X21242395Y-69411904D01*
X21242395Y-69411904D02*
X21261443Y-69373809D01*
X21261443Y-69373809D02*
X21299538Y-69335714D01*
X21299538Y-69335714D02*
X21375728Y-69316666D01*
X21375728Y-69316666D02*
X21509062Y-69316666D01*
X21509062Y-69316666D02*
X21585252Y-69335714D01*
X21585252Y-69335714D02*
X21623348Y-69373809D01*
X21623348Y-69373809D02*
X21642395Y-69411904D01*
X21642395Y-69411904D02*
X21642395Y-69488095D01*
X21642395Y-69488095D02*
X21623348Y-69526190D01*
X21623348Y-69526190D02*
X21585252Y-69564285D01*
X21585252Y-69564285D02*
X21509062Y-69583333D01*
X21509062Y-69583333D02*
X21375728Y-69583333D01*
X21375728Y-69583333D02*
X21299538Y-69564285D01*
X21299538Y-69564285D02*
X21261443Y-69526190D01*
X21261443Y-69526190D02*
X21242395Y-69488095D01*
X21242395Y-69145237D02*
X21566205Y-69145237D01*
X21566205Y-69145237D02*
X21604300Y-69126190D01*
X21604300Y-69126190D02*
X21623348Y-69107142D01*
X21623348Y-69107142D02*
X21642395Y-69069047D01*
X21642395Y-69069047D02*
X21642395Y-68992856D01*
X21642395Y-68992856D02*
X21623348Y-68954761D01*
X21623348Y-68954761D02*
X21604300Y-68935714D01*
X21604300Y-68935714D02*
X21566205Y-68916666D01*
X21566205Y-68916666D02*
X21242395Y-68916666D01*
X21242395Y-68783332D02*
X21242395Y-68554761D01*
X21642395Y-68669047D02*
X21242395Y-68669047D01*
D11*
%TO.C,H1*%
X122580000Y-130683000D02*
G75*
G03*
X122580000Y-130683000I-3200000J0D01*
G01*
%TO.C,H2*%
X112420000Y-30480000D02*
G75*
G03*
X112420000Y-30480000I-3200000J0D01*
G01*
%TO.C,H4*%
X46380000Y-30480000D02*
G75*
G03*
X46380000Y-30480000I-3200000J0D01*
G01*
%TD*%
M02*
