M48
; DRILL file {KiCad 7.0.6} date Sat Jun 29 14:20:43 2024
; FORMAT={-:-/ absolute / inch / decimal}
; #@! TF.CreationDate,2024-06-29T14:20:43+02:00
; #@! TF.GenerationSoftware,Kicad,Pcbnew,7.0.6
; #@! TF.FileFunction,Plated,1,4,PTH
FMAT,2
INCH
; #@! TA.AperFunction,Plated,PTH,ViaDrill
T1C0.0120
; #@! TA.AperFunction,Plated,PTH,ViaDrill
T2C0.0157
; #@! TA.AperFunction,Plated,PTH,ComponentDrill
T3C0.0236
; #@! TA.AperFunction,Plated,PTH,ComponentDrill
T4C0.0394
; #@! TA.AperFunction,Plated,PTH,ComponentDrill
T5C0.0400
; #@! TA.AperFunction,Plated,PTH,ComponentDrill
T6C0.0433
; #@! TA.AperFunction,Plated,PTH,ComponentDrill
T7C0.0787
%
G90
G05
T1
X0.67Y-1.325
X1.2063Y-3.9045
X1.2132Y-3.7812
X1.4433Y-4.1437
X1.4807Y-3.6496
X1.5Y-2.39
X1.5058Y-4.027
X1.535Y-2.45
X1.55Y-3.815
X1.5983Y-4.13
X1.6573Y-5.1293
X1.6689Y-3.8698
X1.8012Y-2.4902
X1.81Y-2.43
X1.9Y-2.455
X1.915Y-2.285
X2.0229Y-4.2887
X2.045Y-2.16
X2.07Y-2.191
X2.09Y-2.125
X2.0947Y-2.155
X2.15Y-2.73
X2.1506Y-2.1644
X2.25Y-3.46
X2.27Y-2.265
X2.27Y-2.365
X2.275Y-2.45
X2.345Y-1.659
X2.347Y-2.008
X2.35Y-2.05
X2.37Y-1.786
X2.375Y-1.985
X2.395Y-1.694
X2.4006Y-2.053
X2.415Y-1.94
X2.425Y-2.32
X2.425Y-2.425
X2.43Y-1.815
X2.44Y-1.905
X2.46Y-2.162
X2.465Y-1.64
X2.465Y-1.93
X2.4696Y-1.8701
X2.4803Y-1.8981
X2.49Y-4.53
X2.4902Y-1.7648
X2.4928Y-1.595
X2.495Y-1.685
X2.5021Y-1.858
X2.5316Y-1.7784
X2.5363Y-1.7237
X2.562Y-3.0914
X2.566Y-2.466
X2.57Y-3.0413
X2.585Y-2.295
X2.587Y-3.28
X2.59Y-1.7761
X2.595Y-1.685
X2.595Y-1.935
X2.6Y-2.025
X2.6Y-3.485
X2.635Y-4.43
X2.655Y-4.035
X2.66Y-1.795
X2.675Y-3.275
X2.685Y-2.257
X2.7Y-3.71
X2.715Y-2.335
X2.72Y-2.985
X2.7242Y-3.442
X2.76Y-1.675
X2.7696Y-1.732
X2.775Y-2.33
X2.785Y-3.095
X2.79Y-3.04
X2.7906Y-2.4056
X2.805Y-1.69
X2.815Y-1.79
X2.815Y-2.715
X2.83Y-1.586
X2.83Y-4.325
X2.865Y-2.95
X2.875Y-1.81
X2.89Y-3.725
X2.8943Y-2.27
X2.895Y-2.305
X2.8958Y-2.0481
X2.91Y-2.725
X2.9114Y-1.8957
X2.9166Y-2.0264
X2.9176Y-1.7103
X2.9284Y-1.871
X2.93Y-2.52
X2.933Y-2.645
X2.935Y-2.27
X2.9381Y-2.0055
X2.95Y-3.005
X2.95Y-3.442
X2.9556Y-1.9811
X2.958Y-1.7091
X2.9622Y-2.257
X2.9644Y-1.8653
X2.97Y-1.83
X2.97Y-2.905
X2.9744Y-1.9578
X2.9763Y-2.3134
X2.9849Y-1.6959
X3.0Y-3.18
X3.0015Y-1.838
X3.005Y-2.81
X3.0145Y-2.293
X3.0205Y-1.8099
X3.03Y-3.61
X3.05Y-3.285
X3.0531Y-1.8119
X3.06Y-1.955
X3.065Y-1.59
X3.0669Y-2.689
X3.07Y-2.29
X3.073Y-2.8584
X3.075Y-1.705
X3.085Y-4.0726
X3.1Y-2.42
X3.1024Y-2.5039
X3.1044Y-1.8305
X3.105Y-2.285
X3.1062Y-2.5852
X3.1154Y-1.969
X3.1338Y-1.9991
X3.1454Y-2.0591
X3.1526Y-3.905
X3.16Y-3.175
X3.1666Y-3.22
X3.1756Y-1.661
X3.1761Y-2.1113
X3.1762Y-2.0811
X3.18Y-2.69
X3.195Y-2.135
X3.195Y-2.17
X3.1996Y-1.6869
X3.2Y-2.4606
X3.2Y-2.61
X3.208Y-2.2
X3.25Y-3.615
X3.2576Y-3.955
X3.2648Y-1.8228
X3.2694Y-1.8668
X3.2856Y-2.5906
X3.2868Y-2.5568
X3.2884Y-2.1461
X3.2913Y-1.6264
X3.2931Y-1.8431
X3.295Y-1.94
X3.3092Y-2.317
X3.3156Y-2.2256
X3.3159Y-2.2564
X3.3174Y-1.3907
X3.3175Y-2.1575
X3.32Y-2.19
X3.3241Y-1.7005
X3.3376Y-3.7525
X3.34Y-2.13
X3.3448Y-2.219
X3.345Y-2.1
X3.3494Y-1.6844
X3.4317Y-3.189
X3.4317Y-3.248
X3.445Y-4.46
X3.45Y-1.83
X3.45Y-2.46
X3.45Y-2.52
X3.4685Y-2.2087
X3.475Y-1.955
X3.4911Y-2.6827
X3.4967Y-2.0733
X3.4976Y-3.7825
X3.505Y-1.9
X3.515Y-2.653
X3.545Y-2.58
X3.56Y-2.385
X3.57Y-2.03
X3.585Y-1.8
X3.59Y-4.88
X3.5945Y-1.858
X3.595Y-2.305
X3.5973Y-2.1984
X3.6169Y-3.8331
X3.6403Y-2.4173
X3.6876Y-2.6575
X3.701Y-1.999
X3.73Y-2.31
X3.735Y-2.2369
X3.7376Y-3.9475
X3.75Y-2.97
X3.76Y-1.835
X3.785Y-2.3976
X3.8026Y-3.9075
X3.815Y-4.875
X3.825Y-3.355
X3.8569Y-2.8858
X3.8844Y-2.6181
X3.8844Y-2.6772
X3.9099Y-2.65
X3.915Y-3.33
X3.9435Y-2.6181
X3.9435Y-2.6772
X3.9512Y-1.8988
X3.9762Y-1.9238
X3.985Y-4.87
X4.0062Y-1.9538
X4.0076Y-4.1675
X4.0203Y-2.9544
X4.03Y-2.12
X4.0326Y-3.9425
X4.0819Y-3.7312
X4.0845Y-1.9555
X4.095Y-2.965
X4.1175Y-1.9886
X4.12Y-3.325
X4.154Y-2.0
X4.165Y-3.615
X4.17Y-2.22
X4.17Y-4.865
X4.175Y-2.49
X4.18Y-2.7152
X4.1948Y-3.7398
X4.2033Y-2.9016
X4.2065Y-2.0185
X4.215Y-1.985
X4.2226Y-4.1625
X4.2348Y-2.9646
X4.35Y-4.87
X4.375Y-3.45
X4.385Y-2.185
X4.385Y-2.265
X4.395Y-2.365
X4.4Y-2.05
X4.41Y-3.66
X4.445Y-4.07
X4.46Y-3.265
X4.475Y-3.85
X4.495Y-2.525
X4.4975Y-4.425
X4.505Y-4.915
X4.5125Y-4.8648
X4.525Y-3.46
X4.57Y-3.175
X4.59Y-2.91
X4.604Y-1.7476
X4.605Y-4.365
X4.605Y-4.165
X4.635Y-4.285
X4.65Y-1.562
X4.6799Y-1.8145
X4.69Y-4.95
X4.725Y-2.45
X4.75Y-1.694
X4.78Y-2.445
X4.8118Y-1.7949
X4.8547Y-1.989
X4.855Y-1.708
X4.945Y-1.565
X4.9579Y-1.7174
X4.97Y-2.97
X5.0336Y-1.6417
X5.0349Y-1.5977
X5.1027Y-1.5727
X5.1852Y-1.5452
X5.235Y-2.035
X5.35Y-1.52
T2
X0.9474Y-5.1573
X1.0057Y-5.1612
X1.1561Y-5.2463
X1.175Y-2.205
X1.185Y-2.54
X1.2042Y-4.9583
X1.2125Y-4.1747
X1.2433Y-3.5228
X1.2494Y-3.3156
X1.2577Y-4.3631
X1.27Y-2.34
X1.275Y-2.995
X1.2822Y-2.6126
X1.304Y-4.6768
X1.3125Y-3.2373
X1.3177Y-4.4708
X1.3601Y-4.367
X1.4155Y-4.3694
X1.455Y-2.715
X1.4843Y-2.6496
X1.5Y-2.3
X1.5054Y-4.7066
X1.5458Y-4.3085
X1.5547Y-2.0403
X1.5989Y-4.5274
X1.5996Y-4.33
X1.6009Y-4.397
X1.6668Y-4.9157
X1.6781Y-4.7781
X1.6831Y-2.5
X1.7147Y-4.3624
X1.7522Y-4.6205
X1.8697Y-4.3857
X1.8732Y-4.602
X1.8874Y-4.7283
X1.92Y-2.065
X1.95Y-2.22
X1.9675Y-2.3175
X1.98Y-2.365
X1.9821Y-4.8843
X1.991Y-5.1106
X2.0264Y-2.0639
X2.0598Y-4.5574
X2.0665Y-4.3861
X2.1567Y-4.683
X2.185Y-2.7677
X2.1873Y-2.2413
X2.21Y-3.8686
X2.3024Y-3.8697
X2.3277Y-4.0637
X2.3354Y-4.6245
X2.3679Y-3.8731
X2.4445Y-4.0105
X2.4764Y-1.4528
X2.4838Y-5.1605
X2.49Y-4.01
X2.52Y-4.6553
X2.545Y-1.6297
X2.545Y-1.69
X2.565Y-4.585
X2.622Y-2.5354
X2.6261Y-4.919
X2.677Y-5.071
X2.6776Y-4.9469
X2.6888Y-1.2188
X2.7176Y-4.7131
X2.7538Y-4.9455
X2.7702Y-3.6457
X2.7707Y-1.3239
X2.8039Y-1.5079
X2.805Y-1.625
X2.8522Y-4.846
X2.95Y-3.805
X2.9528Y-1.5118
X2.955Y-1.625
X2.99Y-3.805
X3.1066Y-1.328
X3.1378Y-2.5591
X3.252Y-1.3937
X3.2675Y-1.4964
X3.2933Y-1.3309
X3.2982Y-4.8354
X3.3016Y-5.1101
X3.3044Y-1.1477
X3.3051Y-4.1175
X3.316Y-1.4624
X3.3252Y-1.6576
X3.3386Y-2.6969
X3.3429Y-1.1477
X3.3937Y-2.6457
X3.4002Y-2.7047
X3.45Y-4.79
X3.4777Y-4.745
X3.5065Y-2.8858
X3.5065Y-2.9646
X3.5354Y-4.4606
X3.5535Y-1.3183
X3.5668Y-1.4946
X3.5678Y-1.2198
X3.5695Y-1.3813
X3.6575Y-4.2953
X3.7348Y-2.748
X3.7402Y-4.2087
X3.7663Y-2.5787
X3.805Y-1.89
X3.855Y-1.81
X3.8619Y-1.3018
X3.875Y-2.17
X3.9474Y-2.5157
X3.98Y-2.4
X3.9868Y-2.5236
X4.0354Y-4.3346
X4.0419Y-2.5512
X4.1246Y-2.7402
X4.145Y-1.675
X4.1811Y-1.3701
X4.195Y-1.675
X4.2047Y-3.8543
X4.2362Y-3.7283
X4.2473Y-3.58
X4.25Y-1.675
X4.31Y-4.05
X4.315Y-1.685
X4.375Y-2.62
X4.375Y-2.85
X4.395Y-2.96
X4.41Y-1.8
X4.42Y-3.11
X4.4513Y-2.825
X4.4567Y-4.4843
X4.515Y-1.98
X4.5656Y-3.7909
X4.605Y-2.215
X4.641Y-4.626
X4.645Y-2.415
X4.8937Y-2.4134
X4.9331Y-2.0512
T4
X0.65Y-1.15
X0.65Y-1.25
X0.75Y-1.15
X0.75Y-1.25
X0.85Y-1.15
X0.85Y-1.25
X0.95Y-1.15
X0.95Y-1.25
X1.05Y-1.15
X1.05Y-1.25
X1.15Y-1.15
X1.15Y-1.25
X1.25Y-1.15
X1.25Y-1.25
X1.35Y-1.15
X1.35Y-1.25
X1.91Y-1.1381
X1.91Y-1.2366
X1.91Y-1.335
X2.005Y-1.14
X2.005Y-1.2384
X2.005Y-1.3369
X2.37Y-2.775
X2.37Y-2.875
X2.37Y-2.975
X2.37Y-3.075
X2.37Y-3.175
X2.37Y-3.275
X2.37Y-3.375
X2.37Y-3.475
X2.47Y-2.775
X2.47Y-2.875
X2.47Y-2.975
X2.47Y-3.075
X2.47Y-3.175
X2.47Y-3.275
X2.47Y-3.375
X2.47Y-3.475
X3.6275Y-4.48
X3.6275Y-4.58
X3.7275Y-4.48
X3.7275Y-4.58
X3.8275Y-4.48
X3.8275Y-4.58
X3.9275Y-4.48
X3.9275Y-4.58
X4.0275Y-4.48
X4.0275Y-4.58
X4.1275Y-4.48
X4.1275Y-4.58
X4.2275Y-4.48
X4.2275Y-4.58
X4.3275Y-4.48
X4.3275Y-4.58
X4.65Y-1.15
X4.65Y-1.25
X4.75Y-1.15
X4.75Y-1.25
X4.85Y-1.15
X4.85Y-1.25
X4.95Y-1.15
X4.95Y-1.25
X5.05Y-1.15
X5.05Y-1.25
X5.15Y-1.15
X5.15Y-1.25
X5.25Y-1.15
X5.25Y-1.25
X5.35Y-1.15
X5.35Y-1.25
T5
X0.6512Y-1.85
X0.6512Y-2.3
X0.6512Y-2.75
X0.6512Y-3.2
X0.6512Y-3.65
X0.6512Y-4.1
X0.6512Y-4.55
X0.6512Y-5.0
X0.978Y-1.85
X0.978Y-2.3
X0.978Y-2.75
X0.978Y-3.2
X0.978Y-3.65
X0.978Y-4.1
X0.978Y-4.55
X0.978Y-5.0
X1.1Y-1.85
X1.1Y-2.3
X1.1Y-2.75
X1.1Y-3.2
X1.1Y-3.65
X1.1Y-4.1
X1.1Y-4.55
X1.1Y-5.0
X2.5797Y-1.09
X2.5797Y-1.19
X2.5797Y-1.29
X2.5797Y-1.39
X4.9Y-1.85
X4.9Y-2.3
X4.9Y-2.75
X4.9Y-3.2
X4.9Y-3.65
X4.9Y-4.1
X4.9Y-4.55
X4.9Y-5.0
X5.022Y-1.85
X5.022Y-2.3
X5.022Y-2.75
X5.022Y-3.2
X5.022Y-3.65
X5.022Y-4.1
X5.022Y-4.55
X5.022Y-5.0
X5.3488Y-1.85
X5.3488Y-2.3
X5.3488Y-2.75
X5.3488Y-3.2
X5.3488Y-3.65
X5.3488Y-4.1
X5.3488Y-4.55
X5.3488Y-5.0
T6
X3.9847Y-1.1516
X3.9847Y-1.25
X3.9847Y-1.3484
X4.5556Y-1.1516
X4.5556Y-1.3484
T3
G00X2.5491Y-5.0112
M15
G01X2.5491Y-5.0545
M16
G05
G00X2.5491Y-5.1813
M15
G01X2.5491Y-5.2128
M16
G05
G00X2.8896Y-5.0112
M15
G01X2.8896Y-5.0545
M16
G05
G00X2.8896Y-5.1813
M15
G01X2.8896Y-5.2128
M16
G05
G00X3.1189Y-1.0981
M15
G01X3.1189Y-1.0666
M16
G05
G00X3.1189Y-1.2682
M15
G01X3.1189Y-1.2249
M16
G05
G00X3.4595Y-1.0981
M15
G01X3.4595Y-1.0666
M16
G05
G00X3.4595Y-1.2682
M15
G01X3.4595Y-1.2249
M16
G05
T6
G00X1.6285Y-1.0476
M15
G01X1.6009Y-1.0476
M16
G05
G00X1.6285Y-1.4256
M15
G01X1.6009Y-1.4256
M16
G05
G00X2.2865Y-1.0494
M15
G01X2.3141Y-1.0494
M16
G05
G00X2.2865Y-1.4274
M15
G01X2.3141Y-1.4274
M16
G05
T7
G00X4.2957Y-1.0256
M15
G01X4.2643Y-1.0256
M16
G05
G00X4.2957Y-1.4744
M15
G01X4.2643Y-1.4744
M16
G05
T0
M30
