%TF.GenerationSoftware,KiCad,Pcbnew,7.0.6*%
%TF.CreationDate,2024-06-29T14:20:42+02:00*%
%TF.ProjectId,plinkyblack_hwmidi_jacks,706c696e-6b79-4626-9c61-636b5f68776d,rev?*%
%TF.SameCoordinates,Original*%
%TF.FileFunction,Soldermask,Top*%
%TF.FilePolarity,Negative*%
%FSLAX46Y46*%
G04 Gerber Fmt 4.6, Leading zero omitted, Abs format (unit mm)*
G04 Created by KiCad (PCBNEW 7.0.6) date 2024-06-29 14:20:42*
%MOMM*%
%LPD*%
G01*
G04 APERTURE LIST*
G04 Aperture macros list*
%AMRoundRect*
0 Rectangle with rounded corners*
0 $1 Rounding radius*
0 $2 $3 $4 $5 $6 $7 $8 $9 X,Y pos of 4 corners*
0 Add a 4 corners polygon primitive as box body*
4,1,4,$2,$3,$4,$5,$6,$7,$8,$9,$2,$3,0*
0 Add four circle primitives for the rounded corners*
1,1,$1+$1,$2,$3*
1,1,$1+$1,$4,$5*
1,1,$1+$1,$6,$7*
1,1,$1+$1,$8,$9*
0 Add four rect primitives between the rounded corners*
20,1,$1+$1,$2,$3,$4,$5,0*
20,1,$1+$1,$4,$5,$6,$7,0*
20,1,$1+$1,$6,$7,$8,$9,0*
20,1,$1+$1,$8,$9,$2,$3,0*%
G04 Aperture macros list end*
%ADD10C,0.010000*%
%ADD11RoundRect,0.301000X0.250000X0.475000X-0.250000X0.475000X-0.250000X-0.475000X0.250000X-0.475000X0*%
%ADD12RoundRect,0.301000X-0.250000X-0.475000X0.250000X-0.475000X0.250000X0.475000X-0.250000X0.475000X0*%
%ADD13RoundRect,0.276000X-0.225000X-0.250000X0.225000X-0.250000X0.225000X0.250000X-0.225000X0.250000X0*%
%ADD14RoundRect,0.191000X-0.170000X0.140000X-0.170000X-0.140000X0.170000X-0.140000X0.170000X0.140000X0*%
%ADD15RoundRect,0.276000X0.225000X0.250000X-0.225000X0.250000X-0.225000X-0.250000X0.225000X-0.250000X0*%
%ADD16RoundRect,0.191000X0.140000X0.170000X-0.140000X0.170000X-0.140000X-0.170000X0.140000X-0.170000X0*%
%ADD17RoundRect,0.301000X-0.550000X1.500000X-0.550000X-1.500000X0.550000X-1.500000X0.550000X1.500000X0*%
%ADD18RoundRect,0.276000X0.250000X-0.225000X0.250000X0.225000X-0.250000X0.225000X-0.250000X-0.225000X0*%
%ADD19RoundRect,0.051000X0.915000X-0.965000X0.915000X0.965000X-0.915000X0.965000X-0.915000X-0.965000X0*%
%ADD20C,2.232000*%
%ADD21RoundRect,0.051000X-0.915000X0.965000X-0.915000X-0.965000X0.915000X-0.965000X0.915000X0.965000X0*%
%ADD22RoundRect,0.301000X-0.600000X0.600000X-0.600000X-0.600000X0.600000X-0.600000X0.600000X0.600000X0*%
%ADD23C,1.802000*%
%ADD24RoundRect,0.186000X-0.185000X0.135000X-0.185000X-0.135000X0.185000X-0.135000X0.185000X0.135000X0*%
%ADD25RoundRect,0.186000X-0.135000X-0.185000X0.135000X-0.185000X0.135000X0.185000X-0.135000X0.185000X0*%
%ADD26RoundRect,0.251000X0.275000X-0.200000X0.275000X0.200000X-0.275000X0.200000X-0.275000X-0.200000X0*%
%ADD27RoundRect,0.251000X0.200000X0.275000X-0.200000X0.275000X-0.200000X-0.275000X0.200000X-0.275000X0*%
%ADD28RoundRect,0.186000X0.135000X0.185000X-0.135000X0.185000X-0.135000X-0.185000X0.135000X-0.185000X0*%
%ADD29RoundRect,0.186000X0.185000X-0.135000X0.185000X0.135000X-0.185000X0.135000X-0.185000X-0.135000X0*%
%ADD30RoundRect,0.251000X-0.275000X0.200000X-0.275000X-0.200000X0.275000X-0.200000X0.275000X0.200000X0*%
%ADD31RoundRect,0.201000X-0.150000X0.825000X-0.150000X-0.825000X0.150000X-0.825000X0.150000X0.825000X0*%
%ADD32RoundRect,0.051000X0.750000X-1.000000X0.750000X1.000000X-0.750000X1.000000X-0.750000X-1.000000X0*%
%ADD33RoundRect,0.051000X1.900000X-1.000000X1.900000X1.000000X-1.900000X1.000000X-1.900000X-1.000000X0*%
%ADD34RoundRect,0.051000X-0.750000X1.000000X-0.750000X-1.000000X0.750000X-1.000000X0.750000X1.000000X0*%
%ADD35RoundRect,0.051000X-1.900000X1.000000X-1.900000X-1.000000X1.900000X-1.000000X1.900000X1.000000X0*%
%ADD36RoundRect,0.201000X0.150000X-0.825000X0.150000X0.825000X-0.150000X0.825000X-0.150000X-0.825000X0*%
%ADD37RoundRect,0.051000X0.850000X-0.850000X0.850000X0.850000X-0.850000X0.850000X-0.850000X-0.850000X0*%
%ADD38O,1.802000X1.802000*%
%ADD39RoundRect,0.191000X0.170000X-0.140000X0.170000X0.140000X-0.170000X0.140000X-0.170000X-0.140000X0*%
%ADD40O,3.342000X2.822000*%
%ADD41O,3.342001X2.134000*%
%ADD42RoundRect,0.051000X-0.900000X0.900000X-0.900000X-0.900000X0.900000X-0.900000X0.900000X0.900000X0*%
%ADD43C,1.902000*%
%ADD44RoundRect,0.191000X-0.140000X-0.170000X0.140000X-0.170000X0.140000X0.170000X-0.140000X0.170000X0*%
%ADD45RoundRect,0.301000X-0.475000X0.250000X-0.475000X-0.250000X0.475000X-0.250000X0.475000X0.250000X0*%
%ADD46RoundRect,0.276000X-0.250000X0.225000X-0.250000X-0.225000X0.250000X-0.225000X0.250000X0.225000X0*%
%ADD47RoundRect,0.051000X0.600000X-0.700000X0.600000X0.700000X-0.600000X0.700000X-0.600000X-0.700000X0*%
%ADD48RoundRect,0.201000X0.150000X-0.650000X0.150000X0.650000X-0.150000X0.650000X-0.150000X-0.650000X0*%
%ADD49RoundRect,0.126000X0.725000X0.075000X-0.725000X0.075000X-0.725000X-0.075000X0.725000X-0.075000X0*%
%ADD50RoundRect,0.126000X0.075000X0.725000X-0.075000X0.725000X-0.075000X-0.725000X0.075000X-0.725000X0*%
%ADD51RoundRect,0.051000X-1.200000X-0.370000X1.200000X-0.370000X1.200000X0.370000X-1.200000X0.370000X0*%
%ADD52RoundRect,0.269750X-0.381250X0.218750X-0.381250X-0.218750X0.381250X-0.218750X0.381250X0.218750X0*%
%ADD53RoundRect,0.301000X0.475000X-0.250000X0.475000X0.250000X-0.475000X0.250000X-0.475000X-0.250000X0*%
%ADD54RoundRect,0.301000X-0.650000X1.000000X-0.650000X-1.000000X0.650000X-1.000000X0.650000X1.000000X0*%
%ADD55RoundRect,0.301000X0.650000X-1.000000X0.650000X1.000000X-0.650000X1.000000X-0.650000X-1.000000X0*%
%ADD56RoundRect,0.051000X-1.500000X-1.750000X1.500000X-1.750000X1.500000X1.750000X-1.500000X1.750000X0*%
%ADD57RoundRect,0.201000X0.512500X0.150000X-0.512500X0.150000X-0.512500X-0.150000X0.512500X-0.150000X0*%
%ADD58RoundRect,0.201000X0.150000X-0.587500X0.150000X0.587500X-0.150000X0.587500X-0.150000X-0.587500X0*%
%ADD59RoundRect,0.201000X-0.150000X0.650000X-0.150000X-0.650000X0.150000X-0.650000X0.150000X0.650000X0*%
%ADD60RoundRect,0.051000X-0.750000X0.500000X-0.750000X-0.500000X0.750000X-0.500000X0.750000X0.500000X0*%
%ADD61RoundRect,0.301000X0.600000X0.600000X-0.600000X0.600000X-0.600000X-0.600000X0.600000X-0.600000X0*%
%ADD62C,1.880000*%
%ADD63RoundRect,0.051000X0.900000X-0.900000X0.900000X0.900000X-0.900000X0.900000X-0.900000X-0.900000X0*%
%ADD64RoundRect,0.201000X0.150000X-0.512500X0.150000X0.512500X-0.150000X0.512500X-0.150000X-0.512500X0*%
%ADD65RoundRect,0.251000X-0.200000X-0.275000X0.200000X-0.275000X0.200000X0.275000X-0.200000X0.275000X0*%
%ADD66C,3.302000*%
%ADD67RoundRect,0.051000X-0.825000X0.825000X-0.825000X-0.825000X0.825000X-0.825000X0.825000X0.825000X0*%
%ADD68C,1.752000*%
%ADD69O,6.102000X3.102000*%
%ADD70RoundRect,0.201000X0.825000X0.150000X-0.825000X0.150000X-0.825000X-0.150000X0.825000X-0.150000X0*%
%ADD71RoundRect,0.301000X-1.000000X-0.650000X1.000000X-0.650000X1.000000X0.650000X-1.000000X0.650000X0*%
%ADD72RoundRect,0.051000X0.187500X0.175000X-0.187500X0.175000X-0.187500X-0.175000X0.187500X-0.175000X0*%
%ADD73RoundRect,0.051000X-0.175000X0.187500X-0.175000X-0.187500X0.175000X-0.187500X0.175000X0.187500X0*%
%ADD74RoundRect,0.163500X-0.187500X-0.112500X0.187500X-0.112500X0.187500X0.112500X-0.187500X0.112500X0*%
%ADD75RoundRect,0.163500X0.187500X0.112500X-0.187500X0.112500X-0.187500X-0.112500X0.187500X-0.112500X0*%
%ADD76RoundRect,0.163500X0.112500X-0.187500X0.112500X0.187500X-0.112500X0.187500X-0.112500X-0.187500X0*%
%ADD77RoundRect,0.163500X-0.112500X0.187500X-0.112500X-0.187500X0.112500X-0.187500X0.112500X0.187500X0*%
%ADD78C,1.302000*%
%ADD79RoundRect,0.101600X1.750000X-0.750000X1.750000X0.750000X-1.750000X0.750000X-1.750000X-0.750000X0*%
%ADD80RoundRect,0.201000X0.625000X0.150000X-0.625000X0.150000X-0.625000X-0.150000X0.625000X-0.150000X0*%
%ADD81C,0.702000*%
%ADD82O,1.104000X2.204000*%
%ADD83O,1.104000X1.904000*%
%ADD84RoundRect,0.051000X1.000000X0.750000X-1.000000X0.750000X-1.000000X-0.750000X1.000000X-0.750000X0*%
%ADD85RoundRect,0.051000X1.000000X1.900000X-1.000000X1.900000X-1.000000X-1.900000X1.000000X-1.900000X0*%
%ADD86RoundRect,0.101600X-1.750000X0.750000X-1.750000X-0.750000X1.750000X-0.750000X1.750000X0.750000X0*%
%ADD87RoundRect,0.051000X0.400000X-0.100000X0.400000X0.100000X-0.400000X0.100000X-0.400000X-0.100000X0*%
%ADD88RoundRect,0.051000X-0.100000X-0.400000X0.100000X-0.400000X0.100000X0.400000X-0.100000X0.400000X0*%
%ADD89RoundRect,0.051000X-1.375000X-1.375000X1.375000X-1.375000X1.375000X1.375000X-1.375000X1.375000X0*%
%ADD90RoundRect,0.301000X1.000000X0.650000X-1.000000X0.650000X-1.000000X-0.650000X1.000000X-0.650000X0*%
%ADD91C,1.102000*%
%ADD92RoundRect,0.269750X0.218750X0.256250X-0.218750X0.256250X-0.218750X-0.256250X0.218750X-0.256250X0*%
%ADD93RoundRect,0.269750X-0.218750X-0.256250X0.218750X-0.256250X0.218750X0.256250X-0.218750X0.256250X0*%
G04 APERTURE END LIST*
%TO.C,U19*%
D10*
X87095928Y-32862273D02*
X86395928Y-32862273D01*
X86395928Y-31622273D01*
X87095928Y-31622273D01*
X87095928Y-32862273D01*
G36*
X87095928Y-32862273D02*
G01*
X86395928Y-32862273D01*
X86395928Y-31622273D01*
X87095928Y-31622273D01*
X87095928Y-32862273D01*
G37*
X86295928Y-32862273D02*
X85595928Y-32862273D01*
X85595928Y-31622273D01*
X86295928Y-31622273D01*
X86295928Y-32862273D01*
G36*
X86295928Y-32862273D02*
G01*
X85595928Y-32862273D01*
X85595928Y-31622273D01*
X86295928Y-31622273D01*
X86295928Y-32862273D01*
G37*
X85495928Y-32862273D02*
X85095928Y-32862273D01*
X85095928Y-31622273D01*
X85495928Y-31622273D01*
X85495928Y-32862273D01*
G36*
X85495928Y-32862273D02*
G01*
X85095928Y-32862273D01*
X85095928Y-31622273D01*
X85495928Y-31622273D01*
X85495928Y-32862273D01*
G37*
X84995928Y-32862273D02*
X84595928Y-32862273D01*
X84595928Y-31622273D01*
X84995928Y-31622273D01*
X84995928Y-32862273D01*
G36*
X84995928Y-32862273D02*
G01*
X84595928Y-32862273D01*
X84595928Y-31622273D01*
X84995928Y-31622273D01*
X84995928Y-32862273D01*
G37*
X84495928Y-32862273D02*
X84095928Y-32862273D01*
X84095928Y-31622273D01*
X84495928Y-31622273D01*
X84495928Y-32862273D01*
G36*
X84495928Y-32862273D02*
G01*
X84095928Y-32862273D01*
X84095928Y-31622273D01*
X84495928Y-31622273D01*
X84495928Y-32862273D01*
G37*
X83995928Y-32862273D02*
X83595928Y-32862273D01*
X83595928Y-31622273D01*
X83995928Y-31622273D01*
X83995928Y-32862273D01*
G36*
X83995928Y-32862273D02*
G01*
X83595928Y-32862273D01*
X83595928Y-31622273D01*
X83995928Y-31622273D01*
X83995928Y-32862273D01*
G37*
X83495928Y-32862273D02*
X83095928Y-32862273D01*
X83095928Y-31622273D01*
X83495928Y-31622273D01*
X83495928Y-32862273D01*
G36*
X83495928Y-32862273D02*
G01*
X83095928Y-32862273D01*
X83095928Y-31622273D01*
X83495928Y-31622273D01*
X83495928Y-32862273D01*
G37*
X82995928Y-32862273D02*
X82595928Y-32862273D01*
X82595928Y-31622273D01*
X82995928Y-31622273D01*
X82995928Y-32862273D01*
G36*
X82995928Y-32862273D02*
G01*
X82595928Y-32862273D01*
X82595928Y-31622273D01*
X82995928Y-31622273D01*
X82995928Y-32862273D01*
G37*
X82495928Y-32862273D02*
X82095928Y-32862273D01*
X82095928Y-31622273D01*
X82495928Y-31622273D01*
X82495928Y-32862273D01*
G36*
X82495928Y-32862273D02*
G01*
X82095928Y-32862273D01*
X82095928Y-31622273D01*
X82495928Y-31622273D01*
X82495928Y-32862273D01*
G37*
X81995928Y-32862273D02*
X81595928Y-32862273D01*
X81595928Y-31622273D01*
X81995928Y-31622273D01*
X81995928Y-32862273D01*
G36*
X81995928Y-32862273D02*
G01*
X81595928Y-32862273D01*
X81595928Y-31622273D01*
X81995928Y-31622273D01*
X81995928Y-32862273D01*
G37*
X81495928Y-32862273D02*
X80795928Y-32862273D01*
X80795928Y-31622273D01*
X81495928Y-31622273D01*
X81495928Y-32862273D01*
G36*
X81495928Y-32862273D02*
G01*
X80795928Y-32862273D01*
X80795928Y-31622273D01*
X81495928Y-31622273D01*
X81495928Y-32862273D01*
G37*
X80695928Y-32862273D02*
X79995928Y-32862273D01*
X79995928Y-31622273D01*
X80695928Y-31622273D01*
X80695928Y-32862273D01*
G36*
X80695928Y-32862273D02*
G01*
X79995928Y-32862273D01*
X79995928Y-31622273D01*
X80695928Y-31622273D01*
X80695928Y-32862273D01*
G37*
%TO.C,U20*%
X66221311Y-127874022D02*
X65521311Y-127874022D01*
X65521311Y-126634022D01*
X66221311Y-126634022D01*
X66221311Y-127874022D01*
G36*
X66221311Y-127874022D02*
G01*
X65521311Y-127874022D01*
X65521311Y-126634022D01*
X66221311Y-126634022D01*
X66221311Y-127874022D01*
G37*
X67021311Y-127874022D02*
X66321311Y-127874022D01*
X66321311Y-126634022D01*
X67021311Y-126634022D01*
X67021311Y-127874022D01*
G36*
X67021311Y-127874022D02*
G01*
X66321311Y-127874022D01*
X66321311Y-126634022D01*
X67021311Y-126634022D01*
X67021311Y-127874022D01*
G37*
X67521311Y-127874022D02*
X67121311Y-127874022D01*
X67121311Y-126634022D01*
X67521311Y-126634022D01*
X67521311Y-127874022D01*
G36*
X67521311Y-127874022D02*
G01*
X67121311Y-127874022D01*
X67121311Y-126634022D01*
X67521311Y-126634022D01*
X67521311Y-127874022D01*
G37*
X68021311Y-127874022D02*
X67621311Y-127874022D01*
X67621311Y-126634022D01*
X68021311Y-126634022D01*
X68021311Y-127874022D01*
G36*
X68021311Y-127874022D02*
G01*
X67621311Y-127874022D01*
X67621311Y-126634022D01*
X68021311Y-126634022D01*
X68021311Y-127874022D01*
G37*
X68521311Y-127874022D02*
X68121311Y-127874022D01*
X68121311Y-126634022D01*
X68521311Y-126634022D01*
X68521311Y-127874022D01*
G36*
X68521311Y-127874022D02*
G01*
X68121311Y-127874022D01*
X68121311Y-126634022D01*
X68521311Y-126634022D01*
X68521311Y-127874022D01*
G37*
X69021311Y-127874022D02*
X68621311Y-127874022D01*
X68621311Y-126634022D01*
X69021311Y-126634022D01*
X69021311Y-127874022D01*
G36*
X69021311Y-127874022D02*
G01*
X68621311Y-127874022D01*
X68621311Y-126634022D01*
X69021311Y-126634022D01*
X69021311Y-127874022D01*
G37*
X69521311Y-127874022D02*
X69121311Y-127874022D01*
X69121311Y-126634022D01*
X69521311Y-126634022D01*
X69521311Y-127874022D01*
G36*
X69521311Y-127874022D02*
G01*
X69121311Y-127874022D01*
X69121311Y-126634022D01*
X69521311Y-126634022D01*
X69521311Y-127874022D01*
G37*
X70021311Y-127874022D02*
X69621311Y-127874022D01*
X69621311Y-126634022D01*
X70021311Y-126634022D01*
X70021311Y-127874022D01*
G36*
X70021311Y-127874022D02*
G01*
X69621311Y-127874022D01*
X69621311Y-126634022D01*
X70021311Y-126634022D01*
X70021311Y-127874022D01*
G37*
X70521311Y-127874022D02*
X70121311Y-127874022D01*
X70121311Y-126634022D01*
X70521311Y-126634022D01*
X70521311Y-127874022D01*
G36*
X70521311Y-127874022D02*
G01*
X70121311Y-127874022D01*
X70121311Y-126634022D01*
X70521311Y-126634022D01*
X70521311Y-127874022D01*
G37*
X71021311Y-127874022D02*
X70621311Y-127874022D01*
X70621311Y-126634022D01*
X71021311Y-126634022D01*
X71021311Y-127874022D01*
G36*
X71021311Y-127874022D02*
G01*
X70621311Y-127874022D01*
X70621311Y-126634022D01*
X71021311Y-126634022D01*
X71021311Y-127874022D01*
G37*
X71821311Y-127874022D02*
X71121311Y-127874022D01*
X71121311Y-126634022D01*
X71821311Y-126634022D01*
X71821311Y-127874022D01*
G36*
X71821311Y-127874022D02*
G01*
X71121311Y-127874022D01*
X71121311Y-126634022D01*
X71821311Y-126634022D01*
X71821311Y-127874022D01*
G37*
X72621311Y-127874022D02*
X71921311Y-127874022D01*
X71921311Y-126634022D01*
X72621311Y-126634022D01*
X72621311Y-127874022D01*
G36*
X72621311Y-127874022D02*
G01*
X71921311Y-127874022D01*
X71921311Y-126634022D01*
X72621311Y-126634022D01*
X72621311Y-127874022D01*
G37*
%TD*%
D11*
%TO.C,C9*%
X67904400Y-87147400D03*
X66004400Y-87147400D03*
%TD*%
D12*
%TO.C,C10*%
X102161300Y-76619100D03*
X104061300Y-76619100D03*
%TD*%
D13*
%TO.C,C20*%
X118605000Y-67691000D03*
X120155000Y-67691000D03*
%TD*%
%TO.C,C21*%
X118732000Y-55245000D03*
X120282000Y-55245000D03*
%TD*%
D14*
%TO.C,C25*%
X114173000Y-94897000D03*
X114173000Y-95857000D03*
%TD*%
D15*
%TO.C,C38*%
X37619519Y-79408918D03*
X36069519Y-79408918D03*
%TD*%
%TO.C,C39*%
X35300081Y-93377518D03*
X33750081Y-93377518D03*
%TD*%
D16*
%TO.C,C40*%
X37610793Y-91356981D03*
X36650793Y-91356981D03*
%TD*%
D17*
%TO.C,C43*%
X74930000Y-112008000D03*
X74930000Y-117608000D03*
%TD*%
D18*
%TO.C,C44*%
X116078000Y-123203000D03*
X116078000Y-121653000D03*
%TD*%
%TO.C,C45*%
X113919000Y-103391000D03*
X113919000Y-101841000D03*
%TD*%
%TO.C,C47*%
X118491000Y-104788000D03*
X118491000Y-103238000D03*
%TD*%
D14*
%TO.C,C50*%
X116459000Y-116233000D03*
X116459000Y-117193000D03*
%TD*%
D19*
%TO.C,J4*%
X27940000Y-115570000D03*
D20*
X16540000Y-115570000D03*
X24840000Y-115570000D03*
%TD*%
D21*
%TO.C,J6*%
X124460000Y-46990000D03*
D20*
X135860000Y-46990000D03*
X127560000Y-46990000D03*
%TD*%
D21*
%TO.C,J7*%
X124460000Y-58420000D03*
D20*
X135860000Y-58420000D03*
X127560000Y-58420000D03*
%TD*%
D19*
%TO.C,J8*%
X27940000Y-81280000D03*
D20*
X16540000Y-81280000D03*
X24840000Y-81280000D03*
%TD*%
D19*
%TO.C,J9*%
X27940000Y-92710000D03*
D20*
X16540000Y-92710000D03*
X24840000Y-92710000D03*
%TD*%
D21*
%TO.C,J15*%
X124460000Y-104140000D03*
D20*
X135860000Y-104140000D03*
X127560000Y-104140000D03*
%TD*%
D21*
%TO.C,J17*%
X124460000Y-92710000D03*
D20*
X135860000Y-92710000D03*
X127560000Y-92710000D03*
%TD*%
D22*
%TO.C,JP1*%
X109918500Y-113792000D03*
D23*
X109918500Y-116332000D03*
X107378500Y-113792000D03*
X107378500Y-116332000D03*
X104838500Y-113792000D03*
X104838500Y-116332000D03*
X102298500Y-113792000D03*
X102298500Y-116332000D03*
X99758500Y-113792000D03*
X99758500Y-116332000D03*
X97218500Y-113792000D03*
X97218500Y-116332000D03*
X94678500Y-113792000D03*
X94678500Y-116332000D03*
X92138500Y-113792000D03*
X92138500Y-116332000D03*
%TD*%
D24*
%TO.C,R14*%
X114300000Y-61720000D03*
X114300000Y-62740000D03*
%TD*%
D25*
%TO.C,R15*%
X120648000Y-50419000D03*
X121668000Y-50419000D03*
%TD*%
D26*
%TO.C,R16*%
X115951000Y-63055000D03*
X115951000Y-61405000D03*
%TD*%
D25*
%TO.C,R18*%
X118870000Y-66167000D03*
X119890000Y-66167000D03*
%TD*%
%TO.C,R19*%
X118972000Y-56769000D03*
X119992000Y-56769000D03*
%TD*%
D27*
%TO.C,R20*%
X120205000Y-69215000D03*
X118555000Y-69215000D03*
%TD*%
D28*
%TO.C,R26*%
X35272794Y-80892769D03*
X34252794Y-80892769D03*
%TD*%
%TO.C,R27*%
X32073622Y-93463835D03*
X31053622Y-93463835D03*
%TD*%
%TO.C,R30*%
X37418947Y-80890763D03*
X36398947Y-80890763D03*
%TD*%
%TO.C,R31*%
X35202516Y-91312482D03*
X34182516Y-91312482D03*
%TD*%
D24*
%TO.C,R33*%
X70776374Y-119067312D03*
X70776374Y-120087312D03*
%TD*%
%TO.C,R42*%
X117551000Y-121893000D03*
X117551000Y-122913000D03*
%TD*%
D28*
%TO.C,R43*%
X115191000Y-105029000D03*
X114171000Y-105029000D03*
%TD*%
%TO.C,R44*%
X117350000Y-124714000D03*
X116330000Y-124714000D03*
%TD*%
D25*
%TO.C,R45*%
X119429000Y-121539000D03*
X120449000Y-121539000D03*
%TD*%
D24*
%TO.C,R46*%
X115443000Y-102106000D03*
X115443000Y-103126000D03*
%TD*%
D25*
%TO.C,R47*%
X117219000Y-101727000D03*
X118239000Y-101727000D03*
%TD*%
D29*
%TO.C,R48*%
X118745000Y-112143000D03*
X118745000Y-111123000D03*
%TD*%
%TO.C,R49*%
X116459000Y-92077000D03*
X116459000Y-91057000D03*
%TD*%
D28*
%TO.C,R50*%
X121541000Y-110871000D03*
X120521000Y-110871000D03*
%TD*%
D26*
%TO.C,R52*%
X122301000Y-123253000D03*
X122301000Y-121603000D03*
%TD*%
%TO.C,R53*%
X120015000Y-103314000D03*
X120015000Y-101664000D03*
%TD*%
D30*
%TO.C,R54*%
X123317000Y-110808000D03*
X123317000Y-112458000D03*
%TD*%
%TO.C,R55*%
X121031000Y-90716500D03*
X121031000Y-92366500D03*
%TD*%
D31*
%TO.C,U1*%
X36601834Y-84293010D03*
X35331834Y-84293010D03*
X34061834Y-84293010D03*
X32791834Y-84293010D03*
X32791834Y-89243010D03*
X34061834Y-89243010D03*
X35331834Y-89243010D03*
X36601834Y-89243010D03*
%TD*%
D32*
%TO.C,U2*%
X65670400Y-84836400D03*
X67970400Y-84836400D03*
D33*
X67970400Y-78536400D03*
D32*
X70270400Y-84836400D03*
%TD*%
D34*
%TO.C,U3*%
X104395300Y-79057100D03*
X102095300Y-79057100D03*
D35*
X102095300Y-85357100D03*
D34*
X99795300Y-79057100D03*
%TD*%
D36*
%TO.C,U5*%
X117729000Y-63943000D03*
X118999000Y-63943000D03*
X120269000Y-63943000D03*
X121539000Y-63943000D03*
X121539000Y-58993000D03*
X120269000Y-58993000D03*
X118999000Y-58993000D03*
X117729000Y-58993000D03*
%TD*%
D31*
%TO.C,U10*%
X119634000Y-94426000D03*
X118364000Y-94426000D03*
X117094000Y-94426000D03*
X115824000Y-94426000D03*
X115824000Y-99376000D03*
X117094000Y-99376000D03*
X118364000Y-99376000D03*
X119634000Y-99376000D03*
%TD*%
%TO.C,U11*%
X121920000Y-114619000D03*
X120650000Y-114619000D03*
X119380000Y-114619000D03*
X118110000Y-114619000D03*
X118110000Y-119569000D03*
X119380000Y-119569000D03*
X120650000Y-119569000D03*
X121920000Y-119569000D03*
%TD*%
D37*
%TO.C,J12*%
X118110000Y-29210000D03*
D38*
X118110000Y-31750000D03*
X120650000Y-29210000D03*
X120650000Y-31750000D03*
X123190000Y-29210000D03*
X123190000Y-31750000D03*
X125730000Y-29210000D03*
X125730000Y-31750000D03*
X128270000Y-29210000D03*
X128270000Y-31750000D03*
X130810000Y-29210000D03*
X130810000Y-31750000D03*
X133350000Y-29210000D03*
X133350000Y-31750000D03*
X135890000Y-29210000D03*
X135890000Y-31750000D03*
%TD*%
D19*
%TO.C,J3*%
X27940000Y-104140000D03*
D20*
X16540000Y-104140000D03*
X24840000Y-104140000D03*
%TD*%
D21*
%TO.C,J14*%
X124460000Y-127000000D03*
D20*
X135860000Y-127000000D03*
X127560000Y-127000000D03*
%TD*%
D15*
%TO.C,C48*%
X121806000Y-112395000D03*
X120256000Y-112395000D03*
%TD*%
D39*
%TO.C,C51*%
X123190000Y-62202000D03*
X123190000Y-61242000D03*
%TD*%
D40*
%TO.C,RV1*%
X41014000Y-36209000D03*
D41*
X41014000Y-26609000D03*
D42*
X48514000Y-33909000D03*
D43*
X48514000Y-31409000D03*
X48514000Y-28909000D03*
%TD*%
D26*
%TO.C,R58*%
X118110000Y-35877000D03*
X118110000Y-34227000D03*
%TD*%
%TO.C,R59*%
X120650000Y-35877000D03*
X120650000Y-34227000D03*
%TD*%
%TO.C,R60*%
X123190000Y-35877000D03*
X123190000Y-34227000D03*
%TD*%
%TO.C,R61*%
X125603000Y-35877000D03*
X125603000Y-34227000D03*
%TD*%
%TO.C,R62*%
X128270000Y-35877000D03*
X128270000Y-34227000D03*
%TD*%
%TO.C,R63*%
X130810000Y-35902000D03*
X130810000Y-34252000D03*
%TD*%
%TO.C,R64*%
X133350000Y-35877000D03*
X133350000Y-34227000D03*
%TD*%
%TO.C,R65*%
X135890000Y-35877000D03*
X135890000Y-34227000D03*
%TD*%
D28*
%TO.C,R12*%
X33938107Y-105996078D03*
X32918107Y-105996078D03*
%TD*%
%TO.C,R11*%
X35157191Y-97358739D03*
X34137191Y-97358739D03*
%TD*%
%TO.C,R5*%
X31084932Y-107396728D03*
X30064932Y-107396728D03*
%TD*%
%TO.C,R4*%
X32252140Y-97229049D03*
X31232140Y-97229049D03*
%TD*%
D15*
%TO.C,C8*%
X34151231Y-107422665D03*
X32601231Y-107422665D03*
%TD*%
%TO.C,C7*%
X35396253Y-96087779D03*
X33846253Y-96087779D03*
%TD*%
D39*
%TO.C,C1*%
X35357394Y-106835759D03*
X35357394Y-105875759D03*
%TD*%
D31*
%TO.C,U9*%
X35359045Y-99085688D03*
X34089045Y-99085688D03*
X32819045Y-99085688D03*
X31549045Y-99085688D03*
X31549045Y-104035688D03*
X32819045Y-104035688D03*
X34089045Y-104035688D03*
X35359045Y-104035688D03*
%TD*%
D29*
%TO.C,R66*%
X119126000Y-124335000D03*
X119126000Y-123315000D03*
%TD*%
%TO.C,R67*%
X116967000Y-104586500D03*
X116967000Y-103566500D03*
%TD*%
D18*
%TO.C,C46*%
X120650000Y-124600000D03*
X120650000Y-123050000D03*
%TD*%
D44*
%TO.C,C34*%
X92992000Y-46482000D03*
X93952000Y-46482000D03*
%TD*%
D19*
%TO.C,J10*%
X27940000Y-127000000D03*
D20*
X16540000Y-127000000D03*
X24840000Y-127000000D03*
%TD*%
D19*
%TO.C,J11*%
X27940000Y-46990000D03*
D20*
X16540000Y-46990000D03*
X24840000Y-46990000D03*
%TD*%
D21*
%TO.C,J22*%
X124460000Y-69850000D03*
D20*
X135860000Y-69850000D03*
X127560000Y-69850000D03*
%TD*%
D21*
%TO.C,J23*%
X124460000Y-81280000D03*
D20*
X135860000Y-81280000D03*
X127560000Y-81280000D03*
%TD*%
D27*
%TO.C,R24*%
X45275000Y-62230000D03*
X43625000Y-62230000D03*
%TD*%
D28*
%TO.C,R28*%
X41912000Y-62230000D03*
X40892000Y-62230000D03*
%TD*%
D27*
%TO.C,R29*%
X43776400Y-60706000D03*
X42126400Y-60706000D03*
%TD*%
D28*
%TO.C,R35*%
X97538000Y-56642000D03*
X96518000Y-56642000D03*
%TD*%
D30*
%TO.C,R91*%
X121285000Y-74613000D03*
X121285000Y-76263000D03*
%TD*%
D21*
%TO.C,J16*%
X124460000Y-115570000D03*
D20*
X135860000Y-115570000D03*
X127560000Y-115570000D03*
%TD*%
D17*
%TO.C,C42*%
X82550000Y-112135000D03*
X82550000Y-117735000D03*
%TD*%
D28*
%TO.C,R22*%
X39551201Y-110771003D03*
X38531201Y-110771003D03*
%TD*%
D11*
%TO.C,C26*%
X92771000Y-75311000D03*
X90871000Y-75311000D03*
%TD*%
%TO.C,C30*%
X92771000Y-73279000D03*
X90871000Y-73279000D03*
%TD*%
D45*
%TO.C,C2*%
X73406000Y-84648000D03*
X73406000Y-86548000D03*
%TD*%
D18*
%TO.C,C15*%
X49445233Y-108542946D03*
X49445233Y-106992946D03*
%TD*%
D44*
%TO.C,C35*%
X39398000Y-60706000D03*
X40358000Y-60706000D03*
%TD*%
D13*
%TO.C,C62*%
X118097000Y-74739500D03*
X119647000Y-74739500D03*
%TD*%
D37*
%TO.C,J13*%
X16510000Y-29210000D03*
D38*
X16510000Y-31750000D03*
X19050000Y-29210000D03*
X19050000Y-31750000D03*
X21590000Y-29210000D03*
X21590000Y-31750000D03*
X24130000Y-29210000D03*
X24130000Y-31750000D03*
X26670000Y-29210000D03*
X26670000Y-31750000D03*
X29210000Y-29210000D03*
X29210000Y-31750000D03*
X31750000Y-29210000D03*
X31750000Y-31750000D03*
X34290000Y-29210000D03*
X34290000Y-31750000D03*
%TD*%
D28*
%TO.C,R41*%
X57279000Y-48260000D03*
X56259000Y-48260000D03*
%TD*%
%TO.C,R71*%
X57279000Y-43688000D03*
X56259000Y-43688000D03*
%TD*%
%TO.C,R68*%
X57279000Y-47117000D03*
X56259000Y-47117000D03*
%TD*%
%TO.C,R73*%
X57279000Y-41402000D03*
X56259000Y-41402000D03*
%TD*%
%TO.C,R72*%
X57279000Y-42545000D03*
X56259000Y-42545000D03*
%TD*%
D25*
%TO.C,R81*%
X54354000Y-41910000D03*
X55374000Y-41910000D03*
%TD*%
D28*
%TO.C,R69*%
X57279000Y-45974000D03*
X56259000Y-45974000D03*
%TD*%
D25*
%TO.C,R75*%
X54354000Y-48768000D03*
X55374000Y-48768000D03*
%TD*%
%TO.C,R76*%
X54354000Y-47625000D03*
X55374000Y-47625000D03*
%TD*%
%TO.C,R79*%
X54354000Y-44196000D03*
X55374000Y-44196000D03*
%TD*%
%TO.C,R82*%
X54354000Y-40767000D03*
X55374000Y-40767000D03*
%TD*%
%TO.C,R78*%
X54377000Y-45339000D03*
X55397000Y-45339000D03*
%TD*%
%TO.C,R80*%
X54354000Y-43053000D03*
X55374000Y-43053000D03*
%TD*%
D28*
%TO.C,R70*%
X57279000Y-44831000D03*
X56259000Y-44831000D03*
%TD*%
%TO.C,R74*%
X57279000Y-40259000D03*
X56259000Y-40259000D03*
%TD*%
D25*
%TO.C,R77*%
X54377000Y-46482000D03*
X55397000Y-46482000D03*
%TD*%
D27*
%TO.C,R21*%
X120459000Y-53721000D03*
X118809000Y-53721000D03*
%TD*%
D44*
%TO.C,C18*%
X89055000Y-56007000D03*
X90015000Y-56007000D03*
%TD*%
D18*
%TO.C,C12*%
X93218000Y-52337000D03*
X93218000Y-50787000D03*
%TD*%
D39*
%TO.C,C19*%
X83600000Y-42880000D03*
X83600000Y-41920000D03*
%TD*%
%TO.C,C22*%
X72390000Y-42263000D03*
X72390000Y-41303000D03*
%TD*%
D16*
%TO.C,C23*%
X67853500Y-58318400D03*
X66893500Y-58318400D03*
%TD*%
D46*
%TO.C,C24*%
X86741000Y-62432900D03*
X86741000Y-63982900D03*
%TD*%
D24*
%TO.C,R34*%
X82169000Y-62736000D03*
X82169000Y-63756000D03*
%TD*%
D30*
%TO.C,R38*%
X74168000Y-40958000D03*
X74168000Y-42608000D03*
%TD*%
D27*
%TO.C,R39*%
X70548000Y-40894000D03*
X68898000Y-40894000D03*
%TD*%
D16*
%TO.C,C36*%
X90142000Y-58521600D03*
X89182000Y-58521600D03*
%TD*%
D47*
%TO.C,Y1*%
X91528000Y-52662000D03*
X91528000Y-50462000D03*
X89828000Y-50462000D03*
X89828000Y-52662000D03*
%TD*%
D14*
%TO.C,C37*%
X76936600Y-41303000D03*
X76936600Y-42263000D03*
%TD*%
D39*
%TO.C,C59*%
X73533000Y-63091000D03*
X73533000Y-62131000D03*
%TD*%
D44*
%TO.C,C54*%
X89118500Y-47205900D03*
X90078500Y-47205900D03*
%TD*%
D39*
%TO.C,C56*%
X79629000Y-63726000D03*
X79629000Y-62766000D03*
%TD*%
D44*
%TO.C,C52*%
X67312600Y-49326800D03*
X68272600Y-49326800D03*
%TD*%
D14*
%TO.C,C53*%
X85090000Y-62727900D03*
X85090000Y-63687900D03*
%TD*%
D44*
%TO.C,C57*%
X67160200Y-46278800D03*
X68120200Y-46278800D03*
%TD*%
%TO.C,C58*%
X67261800Y-52527200D03*
X68221800Y-52527200D03*
%TD*%
D48*
%TO.C,U12*%
X73660000Y-72688000D03*
X74930000Y-72688000D03*
X76200000Y-72688000D03*
X77470000Y-72688000D03*
X77470000Y-65488000D03*
X76200000Y-65488000D03*
X74930000Y-65488000D03*
X73660000Y-65488000D03*
%TD*%
D39*
%TO.C,C16*%
X71882000Y-65123000D03*
X71882000Y-64163000D03*
%TD*%
D49*
%TO.C,U4*%
X86224500Y-58349400D03*
X86224500Y-57849400D03*
X86224500Y-57349400D03*
X86224500Y-56849400D03*
X86224500Y-56349400D03*
X86224500Y-55849400D03*
X86224500Y-55349400D03*
X86224500Y-54849400D03*
X86224500Y-54349400D03*
X86224500Y-53849400D03*
X86224500Y-53349400D03*
X86224500Y-52849400D03*
X86224500Y-52349400D03*
X86224500Y-51849400D03*
X86224500Y-51349400D03*
X86224500Y-50849400D03*
X86224500Y-50349400D03*
X86224500Y-49849400D03*
X86224500Y-49349400D03*
X86224500Y-48849400D03*
X86224500Y-48349400D03*
X86224500Y-47849400D03*
X86224500Y-47349400D03*
X86224500Y-46849400D03*
X86224500Y-46349400D03*
D50*
X84549500Y-44674400D03*
X84049500Y-44674400D03*
X83549500Y-44674400D03*
X83049500Y-44674400D03*
X82549500Y-44674400D03*
X82049500Y-44674400D03*
X81549500Y-44674400D03*
X81049500Y-44674400D03*
X80549500Y-44674400D03*
X80049500Y-44674400D03*
X79549500Y-44674400D03*
X79049500Y-44674400D03*
X78549500Y-44674400D03*
X78049500Y-44674400D03*
X77549500Y-44674400D03*
X77049500Y-44674400D03*
X76549500Y-44674400D03*
X76049500Y-44674400D03*
X75549500Y-44674400D03*
X75049500Y-44674400D03*
X74549500Y-44674400D03*
X74049500Y-44674400D03*
X73549500Y-44674400D03*
X73049500Y-44674400D03*
X72549500Y-44674400D03*
D49*
X70874500Y-46349400D03*
X70874500Y-46849400D03*
X70874500Y-47349400D03*
X70874500Y-47849400D03*
X70874500Y-48349400D03*
X70874500Y-48849400D03*
X70874500Y-49349400D03*
X70874500Y-49849400D03*
X70874500Y-50349400D03*
X70874500Y-50849400D03*
X70874500Y-51349400D03*
X70874500Y-51849400D03*
X70874500Y-52349400D03*
X70874500Y-52849400D03*
X70874500Y-53349400D03*
X70874500Y-53849400D03*
X70874500Y-54349400D03*
X70874500Y-54849400D03*
X70874500Y-55349400D03*
X70874500Y-55849400D03*
X70874500Y-56349400D03*
X70874500Y-56849400D03*
X70874500Y-57349400D03*
X70874500Y-57849400D03*
X70874500Y-58349400D03*
D50*
X72549500Y-60024400D03*
X73049500Y-60024400D03*
X73549500Y-60024400D03*
X74049500Y-60024400D03*
X74549500Y-60024400D03*
X75049500Y-60024400D03*
X75549500Y-60024400D03*
X76049500Y-60024400D03*
X76549500Y-60024400D03*
X77049500Y-60024400D03*
X77549500Y-60024400D03*
X78049500Y-60024400D03*
X78549500Y-60024400D03*
X79049500Y-60024400D03*
X79549500Y-60024400D03*
X80049500Y-60024400D03*
X80549500Y-60024400D03*
X81049500Y-60024400D03*
X81549500Y-60024400D03*
X82049500Y-60024400D03*
X82549500Y-60024400D03*
X83049500Y-60024400D03*
X83549500Y-60024400D03*
X84049500Y-60024400D03*
X84549500Y-60024400D03*
%TD*%
D46*
%TO.C,C60*%
X112903000Y-74917000D03*
X112903000Y-76467000D03*
%TD*%
D13*
%TO.C,C63*%
X116446000Y-87122000D03*
X117996000Y-87122000D03*
%TD*%
D46*
%TO.C,C61*%
X111887000Y-80251000D03*
X111887000Y-81801000D03*
%TD*%
D14*
%TO.C,C64*%
X113538000Y-80546000D03*
X113538000Y-81506000D03*
%TD*%
D28*
%TO.C,R83*%
X114238000Y-73406000D03*
X113218000Y-73406000D03*
%TD*%
D27*
%TO.C,R92*%
X121094000Y-85534500D03*
X119444000Y-85534500D03*
%TD*%
D25*
%TO.C,R89*%
X116648000Y-85534500D03*
X117668000Y-85534500D03*
%TD*%
D31*
%TO.C,U7*%
X118999000Y-78424000D03*
X117729000Y-78424000D03*
X116459000Y-78424000D03*
X115189000Y-78424000D03*
X115189000Y-83374000D03*
X116459000Y-83374000D03*
X117729000Y-83374000D03*
X118999000Y-83374000D03*
%TD*%
D25*
%TO.C,R90*%
X118388000Y-76327000D03*
X119408000Y-76327000D03*
%TD*%
D24*
%TO.C,R86*%
X113284000Y-85723000D03*
X113284000Y-86743000D03*
%TD*%
D29*
%TO.C,R84*%
X111506000Y-86108000D03*
X111506000Y-85088000D03*
%TD*%
D24*
%TO.C,R87*%
X116586000Y-74991500D03*
X116586000Y-76011500D03*
%TD*%
D29*
%TO.C,R88*%
X114872000Y-86743000D03*
X114872000Y-85723000D03*
%TD*%
%TO.C,R85*%
X114554000Y-76202000D03*
X114554000Y-75182000D03*
%TD*%
D16*
%TO.C,C17*%
X44930000Y-63754000D03*
X43970000Y-63754000D03*
%TD*%
D13*
%TO.C,C55*%
X88823500Y-45681900D03*
X90373500Y-45681900D03*
%TD*%
D51*
%TO.C,J5*%
X59518000Y-56261000D03*
X63418000Y-56261000D03*
X59518000Y-57531000D03*
X63418000Y-57531000D03*
X59518000Y-58801000D03*
X63418000Y-58801000D03*
X59518000Y-60071000D03*
X63418000Y-60071000D03*
X59518000Y-61341000D03*
X63418000Y-61341000D03*
X59518000Y-62611000D03*
X63418000Y-62611000D03*
X59518000Y-63881000D03*
X63418000Y-63881000D03*
%TD*%
D14*
%TO.C,C11*%
X66600000Y-62700000D03*
X66600000Y-63660000D03*
%TD*%
D46*
%TO.C,C14*%
X88138000Y-51041000D03*
X88138000Y-52591000D03*
%TD*%
D16*
%TO.C,C69*%
X109954000Y-55880000D03*
X108994000Y-55880000D03*
%TD*%
D28*
%TO.C,R98*%
X106682000Y-57531000D03*
X105662000Y-57531000D03*
%TD*%
%TO.C,R99*%
X109984000Y-57531000D03*
X108964000Y-57531000D03*
%TD*%
D52*
%TO.C,FB1*%
X83123000Y-93234500D03*
X83123000Y-95359500D03*
%TD*%
D44*
%TO.C,C68*%
X49177000Y-36322000D03*
X50137000Y-36322000D03*
%TD*%
D53*
%TO.C,C71*%
X115824000Y-59878000D03*
X115824000Y-57978000D03*
%TD*%
D45*
%TO.C,C72*%
X113664283Y-57350000D03*
X113664283Y-59250000D03*
%TD*%
D27*
%TO.C,R17*%
X120433500Y-52197000D03*
X118783500Y-52197000D03*
%TD*%
D15*
%TO.C,C49*%
X119520000Y-92329000D03*
X117970000Y-92329000D03*
%TD*%
D18*
%TO.C,C3*%
X86044000Y-96850000D03*
X86044000Y-95300000D03*
%TD*%
D14*
%TO.C,C4*%
X97728000Y-102834000D03*
X97728000Y-103794000D03*
%TD*%
D45*
%TO.C,C66*%
X97855000Y-97665000D03*
X97855000Y-99565000D03*
%TD*%
D54*
%TO.C,D1*%
X94997500Y-98456500D03*
X94997500Y-102456500D03*
%TD*%
%TO.C,D2*%
X100712500Y-99155000D03*
X100712500Y-103155000D03*
%TD*%
D55*
%TO.C,D3*%
X104395500Y-103155000D03*
X104395500Y-99155000D03*
%TD*%
D56*
%TO.C,L1*%
X86338000Y-100901000D03*
X91338000Y-100901000D03*
%TD*%
D30*
%TO.C,R7*%
X91632000Y-94488000D03*
X91632000Y-96138000D03*
%TD*%
D57*
%TO.C,U13*%
X89975500Y-97025000D03*
X89975500Y-96075000D03*
X89975500Y-95125000D03*
X87700500Y-95125000D03*
X87700500Y-97025000D03*
%TD*%
D27*
%TO.C,R2*%
X94997000Y-96075000D03*
X93347000Y-96075000D03*
%TD*%
D13*
%TO.C,C65*%
X93397000Y-94551000D03*
X94947000Y-94551000D03*
%TD*%
D11*
%TO.C,C67*%
X103123000Y-96519500D03*
X101223000Y-96519500D03*
%TD*%
D28*
%TO.C,R36*%
X44943218Y-119190969D03*
X43923218Y-119190969D03*
%TD*%
D54*
%TO.C,D4*%
X82678500Y-98456500D03*
X82678500Y-102456500D03*
%TD*%
D26*
%TO.C,R25*%
X80075000Y-102043500D03*
X80075000Y-100393500D03*
%TD*%
D58*
%TO.C,Q1*%
X32070000Y-51610500D03*
X33970000Y-51610500D03*
X33020000Y-49735500D03*
%TD*%
D29*
%TO.C,R8*%
X30353000Y-51081500D03*
X30353000Y-50061500D03*
%TD*%
D24*
%TO.C,R32*%
X71902283Y-119067312D03*
X71902283Y-120087312D03*
%TD*%
%TO.C,R13*%
X80010000Y-66419000D03*
X80010000Y-67439000D03*
%TD*%
D44*
%TO.C,C70*%
X49177000Y-37846000D03*
X50137000Y-37846000D03*
%TD*%
D39*
%TO.C,C73*%
X79248000Y-81912500D03*
X79248000Y-80952500D03*
%TD*%
D59*
%TO.C,U14*%
X77441000Y-74954000D03*
X76171000Y-74954000D03*
X74901000Y-74954000D03*
X73631000Y-74954000D03*
X73631000Y-82154000D03*
X74901000Y-82154000D03*
X76171000Y-82154000D03*
X77441000Y-82154000D03*
%TD*%
D29*
%TO.C,R57*%
X75565000Y-62613000D03*
X75565000Y-61593000D03*
%TD*%
%TO.C,R93*%
X77089000Y-62613000D03*
X77089000Y-61593000D03*
%TD*%
D60*
%TO.C,JP3*%
X109728000Y-47087000D03*
X109728000Y-48387000D03*
%TD*%
%TO.C,JP4*%
X109728000Y-51547000D03*
X109728000Y-52847000D03*
%TD*%
D30*
%TO.C,R94*%
X107696000Y-45403000D03*
X107696000Y-47053000D03*
%TD*%
D61*
%TO.C,J25*%
X62738000Y-88265000D03*
D23*
X60198000Y-88265000D03*
X62738000Y-85725000D03*
X60198000Y-85725000D03*
X62738000Y-83185000D03*
X60198000Y-83185000D03*
X62738000Y-80645000D03*
X60198000Y-80645000D03*
X62738000Y-78105000D03*
X60198000Y-78105000D03*
X62738000Y-75565000D03*
X60198000Y-75565000D03*
X62738000Y-73025000D03*
X60198000Y-73025000D03*
X62738000Y-70485000D03*
X60198000Y-70485000D03*
%TD*%
D25*
%TO.C,R37*%
X61339000Y-118745000D03*
X62359000Y-118745000D03*
%TD*%
D28*
%TO.C,R56*%
X47033712Y-119218476D03*
X46013712Y-119218476D03*
%TD*%
D55*
%TO.C,D5*%
X43180000Y-58007000D03*
X43180000Y-54007000D03*
%TD*%
D54*
%TO.C,D6*%
X46863000Y-54007000D03*
X46863000Y-58007000D03*
%TD*%
D55*
%TO.C,D7*%
X35687000Y-58007000D03*
X35687000Y-54007000D03*
%TD*%
D54*
%TO.C,D8*%
X39370000Y-54007000D03*
X39370000Y-58007000D03*
%TD*%
D62*
%TO.C,J20*%
X65524000Y-27686000D03*
X65524000Y-30226000D03*
X65524000Y-32766000D03*
X65524000Y-35306000D03*
%TD*%
D40*
%TO.C,RV2*%
X58427000Y-26656000D03*
D41*
X58427000Y-36256000D03*
D63*
X50927000Y-28956000D03*
D43*
X50927000Y-31456000D03*
X50927000Y-33956000D03*
%TD*%
D28*
%TO.C,R40*%
X97538000Y-57785000D03*
X96518000Y-57785000D03*
%TD*%
D16*
%TO.C,C74*%
X88899728Y-33528253D03*
X87939728Y-33528253D03*
%TD*%
D64*
%TO.C,U15*%
X67999885Y-124251735D03*
X68949885Y-124251735D03*
X69899885Y-124251735D03*
X69899885Y-121976735D03*
X68949885Y-121976735D03*
X67999885Y-121976735D03*
%TD*%
D19*
%TO.C,J2*%
X27940000Y-58420000D03*
D20*
X16540000Y-58420000D03*
X24840000Y-58420000D03*
%TD*%
D19*
%TO.C,J1*%
X27940000Y-69850000D03*
D20*
X16540000Y-69850000D03*
X24840000Y-69850000D03*
%TD*%
D15*
%TO.C,C5*%
X34176000Y-71501000D03*
X32626000Y-71501000D03*
%TD*%
%TO.C,C6*%
X35446000Y-62230000D03*
X33896000Y-62230000D03*
%TD*%
D28*
%TO.C,R9*%
X33911000Y-73152000D03*
X32891000Y-73152000D03*
%TD*%
D14*
%TO.C,C41*%
X37000000Y-67320000D03*
X37000000Y-68280000D03*
%TD*%
D24*
%TO.C,R1*%
X30861000Y-71753000D03*
X30861000Y-72773000D03*
%TD*%
D28*
%TO.C,R3*%
X32006000Y-62230000D03*
X30986000Y-62230000D03*
%TD*%
%TO.C,R10*%
X35310000Y-60706000D03*
X34290000Y-60706000D03*
%TD*%
D31*
%TO.C,U8*%
X35433000Y-64327000D03*
X34163000Y-64327000D03*
X32893000Y-64327000D03*
X31623000Y-64327000D03*
X31623000Y-69277000D03*
X32893000Y-69277000D03*
X34163000Y-69277000D03*
X35433000Y-69277000D03*
%TD*%
D65*
%TO.C,R95*%
X30925000Y-74803000D03*
X32575000Y-74803000D03*
%TD*%
D27*
%TO.C,R97*%
X32956000Y-55880000D03*
X31306000Y-55880000D03*
%TD*%
%TO.C,R100*%
X32956000Y-54102000D03*
X31306000Y-54102000D03*
%TD*%
D65*
%TO.C,R96*%
X30671000Y-60579000D03*
X32321000Y-60579000D03*
%TD*%
D66*
%TO.C,H1*%
X119380000Y-130683000D03*
%TD*%
%TO.C,H2*%
X109220000Y-30480000D03*
%TD*%
D28*
%TO.C,R51*%
X119229500Y-90805000D03*
X118209500Y-90805000D03*
%TD*%
D66*
%TO.C,H4*%
X43180000Y-30480000D03*
%TD*%
D67*
%TO.C,MT1*%
X115712000Y-29250000D03*
D68*
X115712000Y-34250000D03*
X101212000Y-29250000D03*
X101212000Y-34250000D03*
X101212000Y-31750000D03*
D69*
X108712000Y-26050000D03*
X108712000Y-37450000D03*
%TD*%
D18*
%TO.C,C75*%
X51994605Y-118795708D03*
X51994605Y-117245708D03*
%TD*%
D46*
%TO.C,C76*%
X43081592Y-112687071D03*
X43081592Y-114237071D03*
%TD*%
D24*
%TO.C,R101*%
X50644646Y-117527796D03*
X50644646Y-118547796D03*
%TD*%
D29*
%TO.C,R102*%
X41797248Y-113990419D03*
X41797248Y-112970419D03*
%TD*%
D70*
%TO.C,U16*%
X50252983Y-115374142D03*
X50252983Y-114104142D03*
X50252983Y-112834142D03*
X50252983Y-111564142D03*
X45302983Y-111564142D03*
X45302983Y-112834142D03*
X45302983Y-114104142D03*
X45302983Y-115374142D03*
%TD*%
D16*
%TO.C,C77*%
X46622778Y-116664333D03*
X45662778Y-116664333D03*
%TD*%
D53*
%TO.C,C79*%
X65950174Y-43789752D03*
X65950174Y-41889752D03*
%TD*%
D71*
%TO.C,D9*%
X87600000Y-105600000D03*
X91600000Y-105600000D03*
%TD*%
D72*
%TO.C,U17*%
X68961500Y-43676000D03*
X68961500Y-43176000D03*
X68961500Y-42676000D03*
X68961500Y-42176000D03*
D73*
X68449000Y-42163500D03*
X67949000Y-42163500D03*
D72*
X67436500Y-42176000D03*
X67436500Y-42676000D03*
X67436500Y-43176000D03*
X67436500Y-43676000D03*
D73*
X67949000Y-43688500D03*
X68449000Y-43688500D03*
%TD*%
D74*
%TO.C,D16*%
X46015762Y-108588453D03*
X48115762Y-108588453D03*
%TD*%
D75*
%TO.C,D17*%
X48033711Y-106619236D03*
X45933711Y-106619236D03*
%TD*%
D74*
%TO.C,D20*%
X42766553Y-108604863D03*
X44866553Y-108604863D03*
%TD*%
D75*
%TO.C,D21*%
X44669632Y-106619236D03*
X42569632Y-106619236D03*
%TD*%
D28*
%TO.C,R106*%
X42530105Y-110810768D03*
X41510105Y-110810768D03*
%TD*%
D76*
%TO.C,D14*%
X55837026Y-114097081D03*
X55837026Y-111997081D03*
%TD*%
D77*
%TO.C,D15*%
X53861159Y-112095874D03*
X53861159Y-114195874D03*
%TD*%
D76*
%TO.C,D18*%
X55837026Y-117324330D03*
X55837026Y-115224330D03*
%TD*%
D77*
%TO.C,D19*%
X53861159Y-115323123D03*
X53861159Y-117423123D03*
%TD*%
D27*
%TO.C,R110*%
X20087579Y-132759169D03*
X18437579Y-132759169D03*
%TD*%
D78*
%TO.C,J32*%
X79897715Y-129803484D03*
X79897715Y-123803484D03*
D79*
X83647715Y-122803484D03*
X76147715Y-127703484D03*
X83647715Y-129803484D03*
%TD*%
D78*
%TO.C,J28*%
X58246046Y-129811092D03*
X58246046Y-123811092D03*
D79*
X61996046Y-122811092D03*
X54496046Y-127711092D03*
X61996046Y-129811092D03*
%TD*%
D25*
%TO.C,R23*%
X48709350Y-119218476D03*
X49729350Y-119218476D03*
%TD*%
%TO.C,R6*%
X61284205Y-116910763D03*
X62304205Y-116910763D03*
%TD*%
D78*
%TO.C,J30*%
X35117206Y-129810030D03*
X35117206Y-123810030D03*
D79*
X38867206Y-122810030D03*
X31367206Y-127710030D03*
X38867206Y-129810030D03*
%TD*%
D16*
%TO.C,C88*%
X103644283Y-67000000D03*
X102684283Y-67000000D03*
%TD*%
D80*
%TO.C,U21*%
X37116161Y-117850344D03*
X37116161Y-116580344D03*
X37116161Y-115310344D03*
X37116161Y-114040344D03*
X31766161Y-114040344D03*
X31766161Y-115310344D03*
X31766161Y-116580344D03*
X31766161Y-117850344D03*
%TD*%
D39*
%TO.C,C32*%
X101264283Y-71760000D03*
X101264283Y-70800000D03*
%TD*%
D81*
%TO.C,U19*%
X86435928Y-31172273D03*
X80655928Y-31172273D03*
D82*
X87870928Y-31662273D03*
X79220928Y-31662273D03*
D83*
X87870928Y-27492273D03*
X79220928Y-27492273D03*
%TD*%
D16*
%TO.C,C85*%
X103644283Y-69000000D03*
X102684283Y-69000000D03*
%TD*%
D28*
%TO.C,R120*%
X104364283Y-72000000D03*
X103344283Y-72000000D03*
%TD*%
D16*
%TO.C,C78*%
X80593742Y-39173783D03*
X79633742Y-39173783D03*
%TD*%
D44*
%TO.C,C89*%
X102684283Y-68000000D03*
X103644283Y-68000000D03*
%TD*%
%TO.C,C83*%
X94684283Y-67500000D03*
X95644283Y-67500000D03*
%TD*%
D16*
%TO.C,C81*%
X32316578Y-112255652D03*
X31356578Y-112255652D03*
%TD*%
D84*
%TO.C,U6*%
X91182283Y-82324000D03*
X91182283Y-80024000D03*
D85*
X84882283Y-80024000D03*
D84*
X91182283Y-77724000D03*
%TD*%
D30*
%TO.C,R113*%
X28059123Y-131848972D03*
X28059123Y-133498972D03*
%TD*%
D78*
%TO.C,J31*%
X72712306Y-29698056D03*
X72712306Y-35698056D03*
D86*
X68962306Y-36698056D03*
X76462306Y-31798056D03*
X68962306Y-29698056D03*
%TD*%
D78*
%TO.C,J33*%
X94339677Y-29716578D03*
X94339677Y-35716578D03*
D86*
X90589677Y-36716578D03*
X98089677Y-31816578D03*
X90589677Y-29716578D03*
%TD*%
D26*
%TO.C,R111*%
X41429533Y-118014671D03*
X41429533Y-116364671D03*
%TD*%
D87*
%TO.C,U22*%
X97294283Y-65890000D03*
X97294283Y-66290000D03*
X97294283Y-66690000D03*
X97294283Y-67090000D03*
X97294283Y-67490000D03*
X97294283Y-67890000D03*
X97294283Y-68290000D03*
X97294283Y-68690000D03*
D88*
X97894283Y-69290000D03*
X98294283Y-69290000D03*
X98694283Y-69290000D03*
X99094283Y-69290000D03*
X99494283Y-69290000D03*
X99894283Y-69290000D03*
X100294283Y-69290000D03*
X100694283Y-69290000D03*
D87*
X101294283Y-68690000D03*
X101294283Y-68290000D03*
X101294283Y-67890000D03*
X101294283Y-67490000D03*
X101294283Y-67090000D03*
X101294283Y-66690000D03*
X101294283Y-66290000D03*
X101294283Y-65890000D03*
D88*
X100694283Y-65290000D03*
X100294283Y-65290000D03*
X99894283Y-65290000D03*
X99494283Y-65290000D03*
X99094283Y-65290000D03*
X98694283Y-65290000D03*
X98294283Y-65290000D03*
X97894283Y-65290000D03*
D89*
X99294283Y-67290000D03*
%TD*%
D44*
%TO.C,C82*%
X94684283Y-68500000D03*
X95644283Y-68500000D03*
%TD*%
D16*
%TO.C,C80*%
X103644283Y-66000000D03*
X102684283Y-66000000D03*
%TD*%
D65*
%TO.C,R107*%
X34295074Y-112238607D03*
X35945074Y-112238607D03*
%TD*%
D78*
%TO.C,J29*%
X46626898Y-129810030D03*
X46626898Y-123810030D03*
D79*
X50376898Y-122810030D03*
X42876898Y-127710030D03*
X50376898Y-129810030D03*
%TD*%
D26*
%TO.C,R108*%
X39230562Y-114955615D03*
X39230562Y-113305615D03*
%TD*%
D90*
%TO.C,D11*%
X106600000Y-108400000D03*
X102600000Y-108400000D03*
%TD*%
D39*
%TO.C,C86*%
X98214283Y-71740000D03*
X98214283Y-70780000D03*
%TD*%
D29*
%TO.C,R118*%
X100164283Y-73710000D03*
X100164283Y-72690000D03*
%TD*%
D28*
%TO.C,R116*%
X90506502Y-28154249D03*
X89486502Y-28154249D03*
%TD*%
D81*
%TO.C,U20*%
X66181311Y-128324022D03*
X71961311Y-128324022D03*
D82*
X64746311Y-127834022D03*
X73396311Y-127834022D03*
D83*
X64746311Y-132004022D03*
X73396311Y-132004022D03*
%TD*%
D70*
%TO.C,U18*%
X85998625Y-37887029D03*
X85998625Y-36617029D03*
X85998625Y-35347029D03*
X85998625Y-34077029D03*
X81048625Y-34077029D03*
X81048625Y-35347029D03*
X81048625Y-36617029D03*
X81048625Y-37887029D03*
%TD*%
D39*
%TO.C,C87*%
X99214283Y-71750000D03*
X99214283Y-70790000D03*
%TD*%
%TO.C,C31*%
X100234283Y-71760000D03*
X100234283Y-70800000D03*
%TD*%
%TO.C,C28*%
X102364283Y-72080000D03*
X102364283Y-71120000D03*
%TD*%
D25*
%TO.C,R114*%
X64648206Y-124299387D03*
X65668206Y-124299387D03*
%TD*%
D91*
%TO.C,T_12V-1*%
X107184283Y-92964000D03*
%TD*%
D25*
%TO.C,R105*%
X71909959Y-124710898D03*
X72929959Y-124710898D03*
%TD*%
D92*
%TO.C,D12*%
X23288116Y-132780468D03*
X21713116Y-132780468D03*
%TD*%
D28*
%TO.C,R119*%
X107074283Y-70200000D03*
X106054283Y-70200000D03*
%TD*%
%TO.C,R115*%
X77706532Y-28130586D03*
X76686532Y-28130586D03*
%TD*%
D93*
%TO.C,D23*%
X24842222Y-132780468D03*
X26417222Y-132780468D03*
%TD*%
D71*
%TO.C,D10*%
X95100000Y-108400000D03*
X99100000Y-108400000D03*
%TD*%
D27*
%TO.C,R112*%
X35998083Y-119504025D03*
X34348083Y-119504025D03*
%TD*%
D91*
%TO.C,T_AUDIOL2*%
X96464283Y-63700000D03*
%TD*%
%TO.C,T_12V+1*%
X68830283Y-70866000D03*
%TD*%
D30*
%TO.C,R109*%
X39185768Y-116273175D03*
X39185768Y-117923175D03*
%TD*%
D45*
%TO.C,C27*%
X93722283Y-80076000D03*
X93722283Y-81976000D03*
%TD*%
D29*
%TO.C,R117*%
X101264283Y-73710000D03*
X101264283Y-72690000D03*
%TD*%
D16*
%TO.C,C29*%
X103644283Y-70100000D03*
X102684283Y-70100000D03*
%TD*%
D29*
%TO.C,R104*%
X78986605Y-35847703D03*
X78986605Y-34827703D03*
%TD*%
D14*
%TO.C,C13*%
X96164283Y-69520000D03*
X96164283Y-70480000D03*
%TD*%
D24*
%TO.C,R103*%
X88024743Y-35152698D03*
X88024743Y-36172698D03*
%TD*%
D44*
%TO.C,C84*%
X94704283Y-66500000D03*
X95664283Y-66500000D03*
%TD*%
M02*
